<?xml version="1.0" standalone="no"?>
 <!DOCTYPE svg PUBLIC "-//W3C//DTD SVG 1.1//EN" 
 "http://www.w3.org/Graphics/SVG/1.1/DTD/svg11.dtd"> 
<svg xmlns="http://www.w3.org/2000/svg" version="1.1" 
    width="17.5006cm" height="10.16cm" viewBox="0 0 68900 40000 ">
<title>SVG Picture created as controller_remote_v2.svg date 2020/02/25 14:52:17 </title>
  <desc>Picture generated by Eeschema-SVG </desc>
<g style="fill:#000000; fill-opacity:1;stroke:#000000; stroke-opacity:1;
stroke-linecap:round; stroke-linejoin:round; "
 transform="translate(0 0) scale(1 1)">
</g>
<g style="fill:#000000; fill-opacity:0.0; 
stroke:#000000; stroke-width:0; stroke-opacity:1; 
stroke-linecap:round; stroke-linejoin:round;">
</g>
<g style="fill:#848484; fill-opacity:0.0; 
stroke:#848484; stroke-width:0; stroke-opacity:1; 
stroke-linecap:round; stroke-linejoin:round;">
</g>
<g style="fill:#848484; fill-opacity:0.0; 
stroke:#848484; stroke-width:100; stroke-opacity:1; 
stroke-linecap:round; stroke-linejoin:round;">
<rect x="5270" y="4290" width="20960" height="30930" rx="0" />
</g>
<g style="fill:#848484; fill-opacity:0.0; 
stroke:#848484; stroke-width:0; stroke-opacity:1; 
stroke-linecap:round; stroke-linejoin:round;">
<g >
</g>
<g style="fill:#840000; fill-opacity:0.0; 
stroke:#840000; stroke-width:0; stroke-opacity:1; 
stroke-linecap:round; stroke-linejoin:round;">
</g>
<g style="fill:#840000; fill-opacity:0.0; 
stroke:#840000; stroke-width:60; stroke-opacity:1; 
stroke-linecap:round; stroke-linejoin:round;">
<rect x="50750" y="7750" width="4500" height="3000" rx="0" />
<path d="M50750 9750
L49750 9750
" />
</g>
<g style="fill:#008484; fill-opacity:0.0; 
stroke:#008484; stroke-width:60; stroke-opacity:1; 
stroke-linecap:round; stroke-linejoin:round;">
<text x="51150" y="10000"
textLength="960" font-size="660" lengthAdjust="spacingAndGlyphs"
text-anchor="start" opacity="0">5V</text>
<path d="M51530 9470
L51290 9470
L51270 9710
L51290 9690
L51340 9660
L51460 9660
L51510 9690
L51530 9710
L51560 9760
L51560 9880
L51530 9920
L51510 9950
L51460 9970
L51340 9970
L51290 9950
L51270 9920
" />
<path d="M51700 9470
L51870 9970
L52030 9470
" />
</g>
<g style="fill:#840000; fill-opacity:0.0; 
stroke:#840000; stroke-width:60; stroke-opacity:1; 
stroke-linecap:round; stroke-linejoin:round;">
<text x="50250" y="9650"
textLength="60" font-size="660" lengthAdjust="spacingAndGlyphs"
text-anchor="middle" opacity="0">~</text>
<path d="M50750 8750
L49750 8750
" />
</g>
<g style="fill:#008484; fill-opacity:0.0; 
stroke:#008484; stroke-width:60; stroke-opacity:1; 
stroke-linecap:round; stroke-linejoin:round;">
<text x="51150" y="9000"
textLength="1580" font-size="660" lengthAdjust="spacingAndGlyphs"
text-anchor="start" opacity="0">GND</text>
<path d="M51560 8500
L51510 8470
L51440 8470
L51370 8500
L51320 8540
L51290 8590
L51270 8690
L51270 8760
L51290 8850
L51320 8900
L51370 8950
L51440 8970
L51480 8970
L51560 8950
L51580 8920
L51580 8760
L51480 8760
" />
<path d="M51790 8970
L51790 8470
L52080 8970
L52080 8470
" />
<path d="M52320 8970
L52320 8470
L52440 8470
L52510 8500
L52560 8540
L52580 8590
L52600 8690
L52600 8760
L52580 8850
L52560 8900
L52510 8950
L52440 8970
L52320 8970
" />
</g>
<g style="fill:#840000; fill-opacity:0.0; 
stroke:#840000; stroke-width:60; stroke-opacity:1; 
stroke-linecap:round; stroke-linejoin:round;">
<text x="50250" y="8650"
textLength="60" font-size="660" lengthAdjust="spacingAndGlyphs"
text-anchor="middle" opacity="0">~</text>
</g>
</g>
<g style="fill:#840000; fill-opacity:0.0; 
stroke:#840000; stroke-width:0; stroke-opacity:1; 
stroke-linecap:round; stroke-linejoin:round;">
<g >
</g>
<g style="fill:#840000; fill-opacity:0.0; 
stroke:#840000; stroke-width:60; stroke-opacity:1; 
stroke-linecap:round; stroke-linejoin:round;">
<path style="fill:#840000; fill-opacity:0.0; 
stroke:#840000; stroke-width:60; stroke-opacity:1; 
stroke-linecap:round; stroke-linejoin:round;fill:none"
d="M 37950,34750
37950,35250
38450,35250
37950,35750
37450,35250
37950,35250
" /> 
</g>
<g style="fill:#008484; fill-opacity:0.0; 
stroke:#008484; stroke-width:60; stroke-opacity:1; 
stroke-linecap:round; stroke-linejoin:round;">
<text x="38000" y="36750"
textLength="1580" font-size="660" lengthAdjust="spacingAndGlyphs"
text-anchor="middle" opacity="0">GND</text>
<path d="M37610 36250
L37570 36220
L37500 36220
L37420 36250
L37380 36290
L37350 36340
L37330 36440
L37330 36510
L37350 36600
L37380 36650
L37420 36700
L37500 36720
L37540 36720
L37610 36700
L37640 36670
L37640 36510
L37540 36510
" />
<path d="M37850 36720
L37850 36220
L38140 36720
L38140 36220
" />
<path d="M38380 36720
L38380 36220
L38500 36220
L38570 36250
L38610 36290
L38640 36340
L38660 36440
L38660 36510
L38640 36600
L38610 36650
L38570 36700
L38500 36720
L38380 36720
" />
</g>
</g>
<g style="fill:#008484; fill-opacity:0.0; 
stroke:#008484; stroke-width:0; stroke-opacity:1; 
stroke-linecap:round; stroke-linejoin:round;">
<g >
</g>
<g style="fill:#840000; fill-opacity:0.0; 
stroke:#840000; stroke-width:0; stroke-opacity:1; 
stroke-linecap:round; stroke-linejoin:round;">
</g>
<g style="fill:#840000; fill-opacity:0.0; 
stroke:#840000; stroke-width:60; stroke-opacity:1; 
stroke-linecap:round; stroke-linejoin:round;">
<path style="fill:#840000; fill-opacity:0.0; 
stroke:#840000; stroke-width:60; stroke-opacity:1; 
stroke-linecap:round; stroke-linejoin:round;fill:none"
d="M 36250,35250
35950,35750
" /> 
<path style="fill:#840000; fill-opacity:0.0; 
stroke:#840000; stroke-width:60; stroke-opacity:1; 
stroke-linecap:round; stroke-linejoin:round;fill:none"
d="M 35950,34750
35950,35750
" /> 
<path style="fill:#840000; fill-opacity:0.0; 
stroke:#840000; stroke-width:60; stroke-opacity:1; 
stroke-linecap:round; stroke-linejoin:round;fill:none"
d="M 35950,35750
35650,35250
" /> 
</g>
<g style="fill:#008484; fill-opacity:0.0; 
stroke:#008484; stroke-width:60; stroke-opacity:1; 
stroke-linecap:round; stroke-linejoin:round;">
<text x="35800" y="36700"
textLength="1580" font-size="660" lengthAdjust="spacingAndGlyphs"
text-anchor="middle" opacity="0">+5V</text>
<path d="M35150 36480
L35530 36480
" />
<path d="M35340 36670
L35340 36290
" />
<path d="M36010 36170
L35770 36170
L35750 36410
L35770 36390
L35820 36360
L35940 36360
L35990 36390
L36010 36410
L36030 36460
L36030 36580
L36010 36620
L35990 36650
L35940 36670
L35820 36670
L35770 36650
L35750 36620
" />
<path d="M36180 36170
L36340 36670
L36510 36170
" />
</g>
</g>
<g style="fill:#008484; fill-opacity:0.0; 
stroke:#008484; stroke-width:0; stroke-opacity:1; 
stroke-linecap:round; stroke-linejoin:round;">
<g >
</g>
<g style="fill:#840000; fill-opacity:0.0; 
stroke:#840000; stroke-width:0; stroke-opacity:1; 
stroke-linecap:round; stroke-linejoin:round;">
</g>
<g style="fill:#FFFFC2; fill-opacity:0.0; 
stroke:#FFFFC2; stroke-width:0; stroke-opacity:1; 
stroke-linecap:round; stroke-linejoin:round;">
</g>
<g style="fill:#FFFFC2; fill-opacity:0.6; 
stroke:#FFFFC2; stroke-width:0; stroke-opacity:1; 
stroke-linecap:round; stroke-linejoin:round;">
<rect x="32950" y="9750" width="8000" height="22000" rx="0" />
</g>
<g style="fill:#840000; fill-opacity:0.6; 
stroke:#840000; stroke-width:0; stroke-opacity:1; 
stroke-linecap:round; stroke-linejoin:round;">
</g>
<g style="fill:#840000; fill-opacity:0.0; 
stroke:#840000; stroke-width:100; stroke-opacity:1; 
stroke-linecap:round; stroke-linejoin:round;">
<rect x="32950" y="9750" width="8000" height="22000" rx="0" />
</g>
<g style="fill:#840000; fill-opacity:0.0; 
stroke:#840000; stroke-width:60; stroke-opacity:1; 
stroke-linecap:round; stroke-linejoin:round;">
<text x="34950" y="27520"
textLength="1390" font-size="660" lengthAdjust="spacingAndGlyphs"
text-anchor="middle" opacity="0">IMU</text>
<path d="M34400 27490
L34400 26990
" />
<path d="M34640 27490
L34640 26990
L34800 27350
L34970 26990
L34970 27490
" />
<path d="M35210 26990
L35210 27400
L35230 27440
L35250 27470
L35300 27490
L35400 27490
L35450 27470
L35470 27440
L35490 27400
L35490 26990
" />
<text x="38950" y="27520"
textLength="1540" font-size="660" lengthAdjust="spacingAndGlyphs"
text-anchor="middle" opacity="0">WIFI</text>
<path d="M38280 26990
L38400 27490
L38490 27130
L38590 27490
L38710 26990
" />
<path d="M38900 27490
L38900 26990
" />
<path d="M39300 27230
L39140 27230
" />
<path d="M39140 27490
L39140 26990
L39370 26990
" />
<path d="M39560 27490
L39560 26990
" />
</g>
<g style="fill:#840000; fill-opacity:0.0; 
stroke:#840000; stroke-width:100; stroke-opacity:1; 
stroke-linecap:round; stroke-linejoin:round;">
<rect x="32950" y="9750" width="8000" height="22000" rx="0" />
</g>
<g style="fill:#840000; fill-opacity:0.0; 
stroke:#840000; stroke-width:60; stroke-opacity:1; 
stroke-linecap:round; stroke-linejoin:round;">
<rect x="33450" y="26250" width="3000" height="2000" rx="0" />
<rect x="37450" y="26250" width="3000" height="2000" rx="0" />
<path d="M32950 12750
L31950 12750
" />
</g>
<g style="fill:#008484; fill-opacity:0.0; 
stroke:#008484; stroke-width:60; stroke-opacity:1; 
stroke-linecap:round; stroke-linejoin:round;">
<text x="33150" y="13000"
textLength="1510" font-size="660" lengthAdjust="spacingAndGlyphs"
text-anchor="start" opacity="0">RX0</text>
<path d="M33580 12970
L33410 12730
" />
<path d="M33290 12970
L33290 12470
L33480 12470
L33530 12500
L33560 12520
L33580 12570
L33580 12640
L33560 12690
L33530 12710
L33480 12730
L33290 12730
" />
<path d="M33750 12470
L34080 12970
" />
<path d="M34080 12470
L33750 12970
" />
<path d="M34370 12470
L34410 12470
L34460 12500
L34480 12520
L34510 12570
L34530 12660
L34530 12780
L34510 12880
L34480 12920
L34460 12950
L34410 12970
L34370 12970
L34320 12950
L34290 12920
L34270 12880
L34250 12780
L34250 12660
L34270 12570
L34290 12520
L34320 12500
L34370 12470
" />
</g>
<g style="fill:#840000; fill-opacity:0.0; 
stroke:#840000; stroke-width:60; stroke-opacity:1; 
stroke-linecap:round; stroke-linejoin:round;">
<text x="32450" y="12650"
textLength="540" font-size="660" lengthAdjust="spacingAndGlyphs"
text-anchor="middle" opacity="0">0</text>
<path d="M32420 12120
L32470 12120
L32520 12150
L32540 12170
L32560 12220
L32590 12310
L32590 12430
L32560 12530
L32540 12570
L32520 12600
L32470 12620
L32420 12620
L32370 12600
L32350 12570
L32330 12530
L32300 12430
L32300 12310
L32330 12220
L32350 12170
L32370 12150
L32420 12120
" />
<path d="M32950 11750
L31950 11750
" />
</g>
<g style="fill:#008484; fill-opacity:0.0; 
stroke:#008484; stroke-width:60; stroke-opacity:1; 
stroke-linecap:round; stroke-linejoin:round;">
<text x="33150" y="12000"
textLength="1390" font-size="660" lengthAdjust="spacingAndGlyphs"
text-anchor="start" opacity="0">TX1</text>
<path d="M33220 11470
L33510 11470
" />
<path d="M33370 11970
L33370 11470
" />
<path d="M33630 11470
L33960 11970
" />
<path d="M33960 11470
L33630 11970
" />
<path d="M34410 11970
L34130 11970
" />
<path d="M34270 11970
L34270 11470
L34220 11540
L34180 11590
L34130 11610
" />
</g>
<g style="fill:#840000; fill-opacity:0.0; 
stroke:#840000; stroke-width:60; stroke-opacity:1; 
stroke-linecap:round; stroke-linejoin:round;">
<text x="32450" y="11650"
textLength="540" font-size="660" lengthAdjust="spacingAndGlyphs"
text-anchor="middle" opacity="0">1</text>
<path d="M32590 11620
L32300 11620
" />
<path d="M32450 11620
L32450 11120
L32400 11190
L32350 11240
L32300 11260
" />
<path d="M32950 23750
L31950 23750
" />
</g>
<g style="fill:#008484; fill-opacity:0.0; 
stroke:#008484; stroke-width:60; stroke-opacity:1; 
stroke-linecap:round; stroke-linejoin:round;">
<text x="33150" y="24000"
textLength="1510" font-size="660" lengthAdjust="spacingAndGlyphs"
text-anchor="start" opacity="0">D10</text>
<path d="M33290 23970
L33290 23470
L33410 23470
L33480 23500
L33530 23540
L33560 23590
L33580 23690
L33580 23760
L33560 23850
L33530 23900
L33480 23950
L33410 23970
L33290 23970
" />
<path d="M34060 23970
L33770 23970
" />
<path d="M33910 23970
L33910 23470
L33870 23540
L33820 23590
L33770 23610
" />
<path d="M34370 23470
L34410 23470
L34460 23500
L34480 23520
L34510 23570
L34530 23660
L34530 23780
L34510 23880
L34480 23920
L34460 23950
L34410 23970
L34370 23970
L34320 23950
L34290 23920
L34270 23880
L34250 23780
L34250 23660
L34270 23570
L34290 23520
L34320 23500
L34370 23470
" />
</g>
<g style="fill:#840000; fill-opacity:0.0; 
stroke:#840000; stroke-width:60; stroke-opacity:1; 
stroke-linecap:round; stroke-linejoin:round;">
<text x="32450" y="23650"
textLength="1010" font-size="660" lengthAdjust="spacingAndGlyphs"
text-anchor="middle" opacity="0">10</text>
<path d="M32350 23620
L32060 23620
" />
<path d="M32210 23620
L32210 23120
L32160 23190
L32110 23240
L32060 23260
" />
<path d="M32660 23120
L32710 23120
L32750 23150
L32780 23170
L32800 23220
L32830 23310
L32830 23430
L32800 23530
L32780 23570
L32750 23600
L32710 23620
L32660 23620
L32610 23600
L32590 23570
L32560 23530
L32540 23430
L32540 23310
L32560 23220
L32590 23170
L32610 23150
L32660 23120
" />
<path d="M32950 24750
L31950 24750
" />
</g>
<g style="fill:#008484; fill-opacity:0.0; 
stroke:#008484; stroke-width:60; stroke-opacity:1; 
stroke-linecap:round; stroke-linejoin:round;">
<text x="33150" y="25000"
textLength="1510" font-size="660" lengthAdjust="spacingAndGlyphs"
text-anchor="start" opacity="0">D11</text>
<path d="M33290 24970
L33290 24470
L33410 24470
L33480 24500
L33530 24540
L33560 24590
L33580 24690
L33580 24760
L33560 24850
L33530 24900
L33480 24950
L33410 24970
L33290 24970
" />
<path d="M34060 24970
L33770 24970
" />
<path d="M33910 24970
L33910 24470
L33870 24540
L33820 24590
L33770 24610
" />
<path d="M34530 24970
L34250 24970
" />
<path d="M34390 24970
L34390 24470
L34340 24540
L34290 24590
L34250 24610
" />
</g>
<g style="fill:#840000; fill-opacity:0.0; 
stroke:#840000; stroke-width:60; stroke-opacity:1; 
stroke-linecap:round; stroke-linejoin:round;">
<text x="32450" y="24650"
textLength="1010" font-size="660" lengthAdjust="spacingAndGlyphs"
text-anchor="middle" opacity="0">11</text>
<path d="M32350 24620
L32060 24620
" />
<path d="M32210 24620
L32210 24120
L32160 24190
L32110 24240
L32060 24260
" />
<path d="M32830 24620
L32540 24620
" />
<path d="M32680 24620
L32680 24120
L32640 24190
L32590 24240
L32540 24260
" />
<path d="M32950 25750
L31950 25750
" />
</g>
<g style="fill:#008484; fill-opacity:0.0; 
stroke:#008484; stroke-width:60; stroke-opacity:1; 
stroke-linecap:round; stroke-linejoin:round;">
<text x="33150" y="26000"
textLength="1510" font-size="660" lengthAdjust="spacingAndGlyphs"
text-anchor="start" opacity="0">D12</text>
<path d="M33290 25970
L33290 25470
L33410 25470
L33480 25500
L33530 25540
L33560 25590
L33580 25690
L33580 25760
L33560 25850
L33530 25900
L33480 25950
L33410 25970
L33290 25970
" />
<path d="M34060 25970
L33770 25970
" />
<path d="M33910 25970
L33910 25470
L33870 25540
L33820 25590
L33770 25610
" />
<path d="M34250 25520
L34270 25500
L34320 25470
L34440 25470
L34480 25500
L34510 25520
L34530 25570
L34530 25610
L34510 25690
L34220 25970
L34530 25970
" />
</g>
<g style="fill:#840000; fill-opacity:0.0; 
stroke:#840000; stroke-width:60; stroke-opacity:1; 
stroke-linecap:round; stroke-linejoin:round;">
<text x="32450" y="25650"
textLength="1010" font-size="660" lengthAdjust="spacingAndGlyphs"
text-anchor="middle" opacity="0">12</text>
<path d="M32350 25620
L32060 25620
" />
<path d="M32210 25620
L32210 25120
L32160 25190
L32110 25240
L32060 25260
" />
<path d="M32540 25170
L32560 25150
L32610 25120
L32730 25120
L32780 25150
L32800 25170
L32830 25220
L32830 25260
L32800 25340
L32520 25620
L32830 25620
" />
<path d="M40950 25750
L41950 25750
" />
</g>
<g style="fill:#008484; fill-opacity:0.0; 
stroke:#008484; stroke-width:60; stroke-opacity:1; 
stroke-linecap:round; stroke-linejoin:round;">
<text x="40750" y="26000"
textLength="1510" font-size="660" lengthAdjust="spacingAndGlyphs"
text-anchor="end" opacity="0">D13</text>
<path d="M39380 25970
L39380 25470
L39500 25470
L39570 25500
L39620 25540
L39640 25590
L39670 25690
L39670 25760
L39640 25850
L39620 25900
L39570 25950
L39500 25970
L39380 25970
" />
<path d="M40140 25970
L39860 25970
" />
<path d="M40000 25970
L40000 25470
L39950 25540
L39910 25590
L39860 25610
" />
<path d="M40310 25470
L40620 25470
L40450 25660
L40520 25660
L40570 25690
L40600 25710
L40620 25760
L40620 25880
L40600 25920
L40570 25950
L40520 25970
L40380 25970
L40330 25950
L40310 25920
" />
</g>
<g style="fill:#840000; fill-opacity:0.0; 
stroke:#840000; stroke-width:60; stroke-opacity:1; 
stroke-linecap:round; stroke-linejoin:round;">
<text x="41450" y="25650"
textLength="1010" font-size="660" lengthAdjust="spacingAndGlyphs"
text-anchor="middle" opacity="0">13</text>
<path d="M41350 25620
L41060 25620
" />
<path d="M41210 25620
L41210 25120
L41160 25190
L41110 25240
L41060 25260
" />
<path d="M41520 25120
L41830 25120
L41660 25310
L41730 25310
L41780 25340
L41800 25360
L41830 25410
L41830 25530
L41800 25570
L41780 25600
L41730 25620
L41590 25620
L41540 25600
L41520 25570
" />
<path d="M40950 24750
L41950 24750
" />
</g>
<g style="fill:#008484; fill-opacity:0.0; 
stroke:#008484; stroke-width:60; stroke-opacity:1; 
stroke-linecap:round; stroke-linejoin:round;">
<text x="40750" y="25000"
textLength="1440" font-size="660" lengthAdjust="spacingAndGlyphs"
text-anchor="end" opacity="0">3V3</text>
<path d="M39410 24470
L39720 24470
L39550 24660
L39620 24660
L39670 24690
L39690 24710
L39720 24760
L39720 24880
L39690 24920
L39670 24950
L39620 24970
L39480 24970
L39430 24950
L39410 24920
" />
<path d="M39860 24470
L40020 24970
L40190 24470
" />
<path d="M40310 24470
L40620 24470
L40450 24660
L40520 24660
L40570 24690
L40600 24710
L40620 24760
L40620 24880
L40600 24920
L40570 24950
L40520 24970
L40380 24970
L40330 24950
L40310 24920
" />
</g>
<g style="fill:#840000; fill-opacity:0.0; 
stroke:#840000; stroke-width:60; stroke-opacity:1; 
stroke-linecap:round; stroke-linejoin:round;">
<text x="41450" y="24650"
textLength="1010" font-size="660" lengthAdjust="spacingAndGlyphs"
text-anchor="middle" opacity="0">17</text>
<path d="M41350 24620
L41060 24620
" />
<path d="M41210 24620
L41210 24120
L41160 24190
L41110 24240
L41060 24260
" />
<path d="M41520 24120
L41850 24120
L41640 24620
" />
<path d="M40950 23750
L41950 23750
" />
</g>
<g style="fill:#008484; fill-opacity:0.0; 
stroke:#008484; stroke-width:60; stroke-opacity:1; 
stroke-linecap:round; stroke-linejoin:round;">
<text x="40750" y="24000"
textLength="1870" font-size="660" lengthAdjust="spacingAndGlyphs"
text-anchor="end" opacity="0">AREF</text>
<path d="M39000 23830
L39240 23830
" />
<path d="M38950 23970
L39120 23470
L39290 23970
" />
<path d="M39740 23970
L39570 23730
" />
<path d="M39450 23970
L39450 23470
L39640 23470
L39690 23500
L39720 23520
L39740 23570
L39740 23640
L39720 23690
L39690 23710
L39640 23730
L39450 23730
" />
<path d="M39950 23710
L40120 23710
" />
<path d="M40190 23970
L39950 23970
L39950 23470
L40190 23470
" />
<path d="M40570 23710
L40410 23710
" />
<path d="M40410 23970
L40410 23470
L40640 23470
" />
</g>
<g style="fill:#840000; fill-opacity:0.0; 
stroke:#840000; stroke-width:60; stroke-opacity:1; 
stroke-linecap:round; stroke-linejoin:round;">
<text x="41450" y="23650"
textLength="1010" font-size="660" lengthAdjust="spacingAndGlyphs"
text-anchor="middle" opacity="0">18</text>
<path d="M41350 23620
L41060 23620
" />
<path d="M41210 23620
L41210 23120
L41160 23190
L41110 23240
L41060 23260
" />
<path d="M41640 23340
L41590 23310
L41560 23290
L41540 23240
L41540 23220
L41560 23170
L41590 23150
L41640 23120
L41730 23120
L41780 23150
L41800 23170
L41830 23220
L41830 23240
L41800 23290
L41780 23310
L41730 23340
L41640 23340
L41590 23360
L41560 23380
L41540 23430
L41540 23530
L41560 23570
L41590 23600
L41640 23620
L41730 23620
L41780 23600
L41800 23570
L41830 23530
L41830 23430
L41800 23380
L41780 23360
L41730 23340
" />
<path d="M40950 22750
L41950 22750
" />
</g>
<g style="fill:#008484; fill-opacity:0.0; 
stroke:#008484; stroke-width:60; stroke-opacity:1; 
stroke-linecap:round; stroke-linejoin:round;">
<text x="40750" y="23000"
textLength="960" font-size="660" lengthAdjust="spacingAndGlyphs"
text-anchor="end" opacity="0">A0</text>
<path d="M39910 22830
L40140 22830
" />
<path d="M39860 22970
L40020 22470
L40190 22970
" />
<path d="M40450 22470
L40500 22470
L40550 22500
L40570 22520
L40600 22570
L40620 22660
L40620 22780
L40600 22880
L40570 22920
L40550 22950
L40500 22970
L40450 22970
L40410 22950
L40380 22920
L40360 22880
L40330 22780
L40330 22660
L40360 22570
L40380 22520
L40410 22500
L40450 22470
" />
</g>
<g style="fill:#840000; fill-opacity:0.0; 
stroke:#840000; stroke-width:60; stroke-opacity:1; 
stroke-linecap:round; stroke-linejoin:round;">
<text x="41450" y="22650"
textLength="1010" font-size="660" lengthAdjust="spacingAndGlyphs"
text-anchor="middle" opacity="0">19</text>
<path d="M41350 22620
L41060 22620
" />
<path d="M41210 22620
L41210 22120
L41160 22190
L41110 22240
L41060 22260
" />
<path d="M41590 22620
L41680 22620
L41730 22600
L41750 22570
L41800 22500
L41830 22410
L41830 22220
L41800 22170
L41780 22150
L41730 22120
L41640 22120
L41590 22150
L41560 22170
L41540 22220
L41540 22340
L41560 22380
L41590 22410
L41640 22430
L41730 22430
L41780 22410
L41800 22380
L41830 22340
" />
<path d="M32950 15750
L31950 15750
" />
</g>
<g style="fill:#008484; fill-opacity:0.0; 
stroke:#008484; stroke-width:60; stroke-opacity:1; 
stroke-linecap:round; stroke-linejoin:round;">
<text x="33150" y="16000"
textLength="1040" font-size="660" lengthAdjust="spacingAndGlyphs"
text-anchor="start" opacity="0">D2</text>
<path d="M33290 15970
L33290 15470
L33410 15470
L33480 15500
L33530 15540
L33560 15590
L33580 15690
L33580 15760
L33560 15850
L33530 15900
L33480 15950
L33410 15970
L33290 15970
" />
<path d="M33770 15520
L33790 15500
L33840 15470
L33960 15470
L34010 15500
L34030 15520
L34060 15570
L34060 15610
L34030 15690
L33750 15970
L34060 15970
" />
</g>
<g style="fill:#840000; fill-opacity:0.0; 
stroke:#840000; stroke-width:60; stroke-opacity:1; 
stroke-linecap:round; stroke-linejoin:round;">
<text x="32450" y="15650"
textLength="540" font-size="660" lengthAdjust="spacingAndGlyphs"
text-anchor="middle" opacity="0">2</text>
<path d="M32300 15170
L32330 15150
L32370 15120
L32490 15120
L32540 15150
L32560 15170
L32590 15220
L32590 15260
L32560 15340
L32280 15620
L32590 15620
" />
<path d="M40950 21750
L41950 21750
" />
</g>
<g style="fill:#008484; fill-opacity:0.0; 
stroke:#008484; stroke-width:60; stroke-opacity:1; 
stroke-linecap:round; stroke-linejoin:round;">
<text x="40750" y="22000"
textLength="960" font-size="660" lengthAdjust="spacingAndGlyphs"
text-anchor="end" opacity="0">A1</text>
<path d="M39910 21830
L40140 21830
" />
<path d="M39860 21970
L40020 21470
L40190 21970
" />
<path d="M40620 21970
L40330 21970
" />
<path d="M40480 21970
L40480 21470
L40430 21540
L40380 21590
L40330 21610
" />
</g>
<g style="fill:#840000; fill-opacity:0.0; 
stroke:#840000; stroke-width:60; stroke-opacity:1; 
stroke-linecap:round; stroke-linejoin:round;">
<text x="41450" y="21650"
textLength="1010" font-size="660" lengthAdjust="spacingAndGlyphs"
text-anchor="middle" opacity="0">20</text>
<path d="M41060 21170
L41090 21150
L41140 21120
L41250 21120
L41300 21150
L41330 21170
L41350 21220
L41350 21260
L41330 21340
L41040 21620
L41350 21620
" />
<path d="M41660 21120
L41710 21120
L41750 21150
L41780 21170
L41800 21220
L41830 21310
L41830 21430
L41800 21530
L41780 21570
L41750 21600
L41710 21620
L41660 21620
L41610 21600
L41590 21570
L41560 21530
L41540 21430
L41540 21310
L41560 21220
L41590 21170
L41610 21150
L41660 21120
" />
<path d="M40950 20750
L41950 20750
" />
</g>
<g style="fill:#008484; fill-opacity:0.0; 
stroke:#008484; stroke-width:60; stroke-opacity:1; 
stroke-linecap:round; stroke-linejoin:round;">
<text x="40750" y="21000"
textLength="960" font-size="660" lengthAdjust="spacingAndGlyphs"
text-anchor="end" opacity="0">A2</text>
<path d="M39910 20830
L40140 20830
" />
<path d="M39860 20970
L40020 20470
L40190 20970
" />
<path d="M40330 20520
L40360 20500
L40410 20470
L40520 20470
L40570 20500
L40600 20520
L40620 20570
L40620 20610
L40600 20690
L40310 20970
L40620 20970
" />
</g>
<g style="fill:#840000; fill-opacity:0.0; 
stroke:#840000; stroke-width:60; stroke-opacity:1; 
stroke-linecap:round; stroke-linejoin:round;">
<text x="41450" y="20650"
textLength="1010" font-size="660" lengthAdjust="spacingAndGlyphs"
text-anchor="middle" opacity="0">21</text>
<path d="M41060 20170
L41090 20150
L41140 20120
L41250 20120
L41300 20150
L41330 20170
L41350 20220
L41350 20260
L41330 20340
L41040 20620
L41350 20620
" />
<path d="M41830 20620
L41540 20620
" />
<path d="M41680 20620
L41680 20120
L41640 20190
L41590 20240
L41540 20260
" />
<path d="M40950 19750
L41950 19750
" />
</g>
<g style="fill:#008484; fill-opacity:0.0; 
stroke:#008484; stroke-width:60; stroke-opacity:1; 
stroke-linecap:round; stroke-linejoin:round;">
<text x="40750" y="20000"
textLength="960" font-size="660" lengthAdjust="spacingAndGlyphs"
text-anchor="end" opacity="0">A3</text>
<path d="M39910 19830
L40140 19830
" />
<path d="M39860 19970
L40020 19470
L40190 19970
" />
<path d="M40310 19470
L40620 19470
L40450 19660
L40520 19660
L40570 19690
L40600 19710
L40620 19760
L40620 19880
L40600 19920
L40570 19950
L40520 19970
L40380 19970
L40330 19950
L40310 19920
" />
</g>
<g style="fill:#840000; fill-opacity:0.0; 
stroke:#840000; stroke-width:60; stroke-opacity:1; 
stroke-linecap:round; stroke-linejoin:round;">
<text x="41450" y="19650"
textLength="1010" font-size="660" lengthAdjust="spacingAndGlyphs"
text-anchor="middle" opacity="0">22</text>
<path d="M41060 19170
L41090 19150
L41140 19120
L41250 19120
L41300 19150
L41330 19170
L41350 19220
L41350 19260
L41330 19340
L41040 19620
L41350 19620
" />
<path d="M41540 19170
L41560 19150
L41610 19120
L41730 19120
L41780 19150
L41800 19170
L41830 19220
L41830 19260
L41800 19340
L41520 19620
L41830 19620
" />
<path d="M40950 18750
L41950 18750
" />
</g>
<g style="fill:#008484; fill-opacity:0.0; 
stroke:#008484; stroke-width:60; stroke-opacity:1; 
stroke-linecap:round; stroke-linejoin:round;">
<text x="40750" y="19000"
textLength="960" font-size="660" lengthAdjust="spacingAndGlyphs"
text-anchor="end" opacity="0">A4</text>
<path d="M39910 18830
L40140 18830
" />
<path d="M39860 18970
L40020 18470
L40190 18970
" />
<path d="M40570 18640
L40570 18970
" />
<path d="M40450 18450
L40330 18800
L40640 18800
" />
</g>
<g style="fill:#840000; fill-opacity:0.0; 
stroke:#840000; stroke-width:60; stroke-opacity:1; 
stroke-linecap:round; stroke-linejoin:round;">
<text x="41450" y="18650"
textLength="1010" font-size="660" lengthAdjust="spacingAndGlyphs"
text-anchor="middle" opacity="0">23</text>
<path d="M41060 18170
L41090 18150
L41140 18120
L41250 18120
L41300 18150
L41330 18170
L41350 18220
L41350 18260
L41330 18340
L41040 18620
L41350 18620
" />
<path d="M41520 18120
L41830 18120
L41660 18310
L41730 18310
L41780 18340
L41800 18360
L41830 18410
L41830 18530
L41800 18570
L41780 18600
L41730 18620
L41590 18620
L41540 18600
L41520 18570
" />
<path d="M40950 17750
L41950 17750
" />
</g>
<g style="fill:#008484; fill-opacity:0.0; 
stroke:#008484; stroke-width:60; stroke-opacity:1; 
stroke-linecap:round; stroke-linejoin:round;">
<text x="40750" y="18000"
textLength="960" font-size="660" lengthAdjust="spacingAndGlyphs"
text-anchor="end" opacity="0">A5</text>
<path d="M39910 17830
L40140 17830
" />
<path d="M39860 17970
L40020 17470
L40190 17970
" />
<path d="M40600 17470
L40360 17470
L40330 17710
L40360 17690
L40410 17660
L40520 17660
L40570 17690
L40600 17710
L40620 17760
L40620 17880
L40600 17920
L40570 17950
L40520 17970
L40410 17970
L40360 17950
L40330 17920
" />
</g>
<g style="fill:#840000; fill-opacity:0.0; 
stroke:#840000; stroke-width:60; stroke-opacity:1; 
stroke-linecap:round; stroke-linejoin:round;">
<text x="41450" y="17650"
textLength="1010" font-size="660" lengthAdjust="spacingAndGlyphs"
text-anchor="middle" opacity="0">24</text>
<path d="M41060 17170
L41090 17150
L41140 17120
L41250 17120
L41300 17150
L41330 17170
L41350 17220
L41350 17260
L41330 17340
L41040 17620
L41350 17620
" />
<path d="M41780 17290
L41780 17620
" />
<path d="M41660 17100
L41540 17450
L41850 17450
" />
<path d="M40950 16750
L41950 16750
" />
</g>
<g style="fill:#008484; fill-opacity:0.0; 
stroke:#008484; stroke-width:60; stroke-opacity:1; 
stroke-linecap:round; stroke-linejoin:round;">
<text x="40750" y="17000"
textLength="960" font-size="660" lengthAdjust="spacingAndGlyphs"
text-anchor="end" opacity="0">A6</text>
<path d="M39910 16830
L40140 16830
" />
<path d="M39860 16970
L40020 16470
L40190 16970
" />
<path d="M40570 16470
L40480 16470
L40430 16500
L40410 16520
L40360 16590
L40330 16690
L40330 16880
L40360 16920
L40380 16950
L40430 16970
L40520 16970
L40570 16950
L40600 16920
L40620 16880
L40620 16760
L40600 16710
L40570 16690
L40520 16660
L40430 16660
L40380 16690
L40360 16710
L40330 16760
" />
</g>
<g style="fill:#840000; fill-opacity:0.0; 
stroke:#840000; stroke-width:60; stroke-opacity:1; 
stroke-linecap:round; stroke-linejoin:round;">
<text x="41450" y="16650"
textLength="1010" font-size="660" lengthAdjust="spacingAndGlyphs"
text-anchor="middle" opacity="0">25</text>
<path d="M41060 16170
L41090 16150
L41140 16120
L41250 16120
L41300 16150
L41330 16170
L41350 16220
L41350 16260
L41330 16340
L41040 16620
L41350 16620
" />
<path d="M41800 16120
L41560 16120
L41540 16360
L41560 16340
L41610 16310
L41730 16310
L41780 16340
L41800 16360
L41830 16410
L41830 16530
L41800 16570
L41780 16600
L41730 16620
L41610 16620
L41560 16600
L41540 16570
" />
<path d="M40950 15750
L41950 15750
" />
</g>
<g style="fill:#008484; fill-opacity:0.0; 
stroke:#008484; stroke-width:60; stroke-opacity:1; 
stroke-linecap:round; stroke-linejoin:round;">
<text x="40750" y="16000"
textLength="960" font-size="660" lengthAdjust="spacingAndGlyphs"
text-anchor="end" opacity="0">A7</text>
<path d="M39910 15830
L40140 15830
" />
<path d="M39860 15970
L40020 15470
L40190 15970
" />
<path d="M40310 15470
L40640 15470
L40430 15970
" />
</g>
<g style="fill:#840000; fill-opacity:0.0; 
stroke:#840000; stroke-width:60; stroke-opacity:1; 
stroke-linecap:round; stroke-linejoin:round;">
<text x="41450" y="15650"
textLength="1010" font-size="660" lengthAdjust="spacingAndGlyphs"
text-anchor="middle" opacity="0">26</text>
<path d="M41060 15170
L41090 15150
L41140 15120
L41250 15120
L41300 15150
L41330 15170
L41350 15220
L41350 15260
L41330 15340
L41040 15620
L41350 15620
" />
<path d="M41780 15120
L41680 15120
L41640 15150
L41610 15170
L41560 15240
L41540 15340
L41540 15530
L41560 15570
L41590 15600
L41640 15620
L41730 15620
L41780 15600
L41800 15570
L41830 15530
L41830 15410
L41800 15360
L41780 15340
L41730 15310
L41640 15310
L41590 15340
L41560 15360
L41540 15410
" />
<path d="M32950 16750
L31950 16750
" />
</g>
<g style="fill:#008484; fill-opacity:0.0; 
stroke:#008484; stroke-width:60; stroke-opacity:1; 
stroke-linecap:round; stroke-linejoin:round;">
<text x="33150" y="17000"
textLength="1040" font-size="660" lengthAdjust="spacingAndGlyphs"
text-anchor="start" opacity="0">D3</text>
<path d="M33290 16970
L33290 16470
L33410 16470
L33480 16500
L33530 16540
L33560 16590
L33580 16690
L33580 16760
L33560 16850
L33530 16900
L33480 16950
L33410 16970
L33290 16970
" />
<path d="M33750 16470
L34060 16470
L33890 16660
L33960 16660
L34010 16690
L34030 16710
L34060 16760
L34060 16880
L34030 16920
L34010 16950
L33960 16970
L33820 16970
L33770 16950
L33750 16920
" />
</g>
<g style="fill:#840000; fill-opacity:0.0; 
stroke:#840000; stroke-width:60; stroke-opacity:1; 
stroke-linecap:round; stroke-linejoin:round;">
<text x="32450" y="16650"
textLength="540" font-size="660" lengthAdjust="spacingAndGlyphs"
text-anchor="middle" opacity="0">3</text>
<path d="M32280 16120
L32590 16120
L32420 16310
L32490 16310
L32540 16340
L32560 16360
L32590 16410
L32590 16530
L32560 16570
L32540 16600
L32490 16620
L32350 16620
L32300 16600
L32280 16570
" />
<path d="M32950 17750
L31950 17750
" />
</g>
<g style="fill:#008484; fill-opacity:0.0; 
stroke:#008484; stroke-width:60; stroke-opacity:1; 
stroke-linecap:round; stroke-linejoin:round;">
<text x="33150" y="18000"
textLength="1040" font-size="660" lengthAdjust="spacingAndGlyphs"
text-anchor="start" opacity="0">D4</text>
<path d="M33290 17970
L33290 17470
L33410 17470
L33480 17500
L33530 17540
L33560 17590
L33580 17690
L33580 17760
L33560 17850
L33530 17900
L33480 17950
L33410 17970
L33290 17970
" />
<path d="M34010 17640
L34010 17970
" />
<path d="M33890 17450
L33770 17800
L34080 17800
" />
</g>
<g style="fill:#840000; fill-opacity:0.0; 
stroke:#840000; stroke-width:60; stroke-opacity:1; 
stroke-linecap:round; stroke-linejoin:round;">
<text x="32450" y="17650"
textLength="540" font-size="660" lengthAdjust="spacingAndGlyphs"
text-anchor="middle" opacity="0">4</text>
<path d="M32540 17290
L32540 17620
" />
<path d="M32420 17100
L32300 17450
L32610 17450
" />
<path d="M32950 18750
L31950 18750
" />
</g>
<g style="fill:#008484; fill-opacity:0.0; 
stroke:#008484; stroke-width:60; stroke-opacity:1; 
stroke-linecap:round; stroke-linejoin:round;">
<text x="33150" y="19000"
textLength="1040" font-size="660" lengthAdjust="spacingAndGlyphs"
text-anchor="start" opacity="0">D5</text>
<path d="M33290 18970
L33290 18470
L33410 18470
L33480 18500
L33530 18540
L33560 18590
L33580 18690
L33580 18760
L33560 18850
L33530 18900
L33480 18950
L33410 18970
L33290 18970
" />
<path d="M34030 18470
L33790 18470
L33770 18710
L33790 18690
L33840 18660
L33960 18660
L34010 18690
L34030 18710
L34060 18760
L34060 18880
L34030 18920
L34010 18950
L33960 18970
L33840 18970
L33790 18950
L33770 18920
" />
</g>
<g style="fill:#840000; fill-opacity:0.0; 
stroke:#840000; stroke-width:60; stroke-opacity:1; 
stroke-linecap:round; stroke-linejoin:round;">
<text x="32450" y="18650"
textLength="540" font-size="660" lengthAdjust="spacingAndGlyphs"
text-anchor="middle" opacity="0">5</text>
<path d="M32560 18120
L32330 18120
L32300 18360
L32330 18340
L32370 18310
L32490 18310
L32540 18340
L32560 18360
L32590 18410
L32590 18530
L32560 18570
L32540 18600
L32490 18620
L32370 18620
L32330 18600
L32300 18570
" />
<path d="M32950 19750
L31950 19750
" />
</g>
<g style="fill:#008484; fill-opacity:0.0; 
stroke:#008484; stroke-width:60; stroke-opacity:1; 
stroke-linecap:round; stroke-linejoin:round;">
<text x="33150" y="20000"
textLength="1040" font-size="660" lengthAdjust="spacingAndGlyphs"
text-anchor="start" opacity="0">D6</text>
<path d="M33290 19970
L33290 19470
L33410 19470
L33480 19500
L33530 19540
L33560 19590
L33580 19690
L33580 19760
L33560 19850
L33530 19900
L33480 19950
L33410 19970
L33290 19970
" />
<path d="M34010 19470
L33910 19470
L33870 19500
L33840 19520
L33790 19590
L33770 19690
L33770 19880
L33790 19920
L33820 19950
L33870 19970
L33960 19970
L34010 19950
L34030 19920
L34060 19880
L34060 19760
L34030 19710
L34010 19690
L33960 19660
L33870 19660
L33820 19690
L33790 19710
L33770 19760
" />
</g>
<g style="fill:#840000; fill-opacity:0.0; 
stroke:#840000; stroke-width:60; stroke-opacity:1; 
stroke-linecap:round; stroke-linejoin:round;">
<text x="32450" y="19650"
textLength="540" font-size="660" lengthAdjust="spacingAndGlyphs"
text-anchor="middle" opacity="0">6</text>
<path d="M32540 19120
L32450 19120
L32400 19150
L32370 19170
L32330 19240
L32300 19340
L32300 19530
L32330 19570
L32350 19600
L32400 19620
L32490 19620
L32540 19600
L32560 19570
L32590 19530
L32590 19410
L32560 19360
L32540 19340
L32490 19310
L32400 19310
L32350 19340
L32330 19360
L32300 19410
" />
<path d="M32950 20750
L31950 20750
" />
</g>
<g style="fill:#008484; fill-opacity:0.0; 
stroke:#008484; stroke-width:60; stroke-opacity:1; 
stroke-linecap:round; stroke-linejoin:round;">
<text x="33150" y="21000"
textLength="1040" font-size="660" lengthAdjust="spacingAndGlyphs"
text-anchor="start" opacity="0">D7</text>
<path d="M33290 20970
L33290 20470
L33410 20470
L33480 20500
L33530 20540
L33560 20590
L33580 20690
L33580 20760
L33560 20850
L33530 20900
L33480 20950
L33410 20970
L33290 20970
" />
<path d="M33750 20470
L34080 20470
L33870 20970
" />
</g>
<g style="fill:#840000; fill-opacity:0.0; 
stroke:#840000; stroke-width:60; stroke-opacity:1; 
stroke-linecap:round; stroke-linejoin:round;">
<text x="32450" y="20650"
textLength="540" font-size="660" lengthAdjust="spacingAndGlyphs"
text-anchor="middle" opacity="0">7</text>
<path d="M32280 20120
L32610 20120
L32400 20620
" />
<path d="M32950 21750
L31950 21750
" />
</g>
<g style="fill:#008484; fill-opacity:0.0; 
stroke:#008484; stroke-width:60; stroke-opacity:1; 
stroke-linecap:round; stroke-linejoin:round;">
<text x="33150" y="22000"
textLength="1040" font-size="660" lengthAdjust="spacingAndGlyphs"
text-anchor="start" opacity="0">D8</text>
<path d="M33290 21970
L33290 21470
L33410 21470
L33480 21500
L33530 21540
L33560 21590
L33580 21690
L33580 21760
L33560 21850
L33530 21900
L33480 21950
L33410 21970
L33290 21970
" />
<path d="M33870 21690
L33820 21660
L33790 21640
L33770 21590
L33770 21570
L33790 21520
L33820 21500
L33870 21470
L33960 21470
L34010 21500
L34030 21520
L34060 21570
L34060 21590
L34030 21640
L34010 21660
L33960 21690
L33870 21690
L33820 21710
L33790 21730
L33770 21780
L33770 21880
L33790 21920
L33820 21950
L33870 21970
L33960 21970
L34010 21950
L34030 21920
L34060 21880
L34060 21780
L34030 21730
L34010 21710
L33960 21690
" />
</g>
<g style="fill:#840000; fill-opacity:0.0; 
stroke:#840000; stroke-width:60; stroke-opacity:1; 
stroke-linecap:round; stroke-linejoin:round;">
<text x="32450" y="21650"
textLength="540" font-size="660" lengthAdjust="spacingAndGlyphs"
text-anchor="middle" opacity="0">8</text>
<path d="M32400 21340
L32350 21310
L32330 21290
L32300 21240
L32300 21220
L32330 21170
L32350 21150
L32400 21120
L32490 21120
L32540 21150
L32560 21170
L32590 21220
L32590 21240
L32560 21290
L32540 21310
L32490 21340
L32400 21340
L32350 21360
L32330 21380
L32300 21430
L32300 21530
L32330 21570
L32350 21600
L32400 21620
L32490 21620
L32540 21600
L32560 21570
L32590 21530
L32590 21430
L32560 21380
L32540 21360
L32490 21340
" />
<path d="M32950 22750
L31950 22750
" />
</g>
<g style="fill:#008484; fill-opacity:0.0; 
stroke:#008484; stroke-width:60; stroke-opacity:1; 
stroke-linecap:round; stroke-linejoin:round;">
<text x="33150" y="23000"
textLength="1040" font-size="660" lengthAdjust="spacingAndGlyphs"
text-anchor="start" opacity="0">D9</text>
<path d="M33290 22970
L33290 22470
L33410 22470
L33480 22500
L33530 22540
L33560 22590
L33580 22690
L33580 22760
L33560 22850
L33530 22900
L33480 22950
L33410 22970
L33290 22970
" />
<path d="M33820 22970
L33910 22970
L33960 22950
L33980 22920
L34030 22850
L34060 22760
L34060 22570
L34030 22520
L34010 22500
L33960 22470
L33870 22470
L33820 22500
L33790 22520
L33770 22570
L33770 22690
L33790 22730
L33820 22760
L33870 22780
L33960 22780
L34010 22760
L34030 22730
L34060 22690
" />
</g>
<g style="fill:#840000; fill-opacity:0.0; 
stroke:#840000; stroke-width:60; stroke-opacity:1; 
stroke-linecap:round; stroke-linejoin:round;">
<text x="32450" y="22650"
textLength="540" font-size="660" lengthAdjust="spacingAndGlyphs"
text-anchor="middle" opacity="0">9</text>
<path d="M32350 22620
L32450 22620
L32490 22600
L32520 22570
L32560 22500
L32590 22410
L32590 22220
L32560 22170
L32540 22150
L32490 22120
L32400 22120
L32350 22150
L32330 22170
L32300 22220
L32300 22340
L32330 22380
L32350 22410
L32400 22430
L32490 22430
L32540 22410
L32560 22380
L32590 22340
" />
<path d="M32950 14750
L31950 14750
" />
</g>
<g style="fill:#008484; fill-opacity:0.0; 
stroke:#008484; stroke-width:60; stroke-opacity:1; 
stroke-linecap:round; stroke-linejoin:round;">
<text x="33150" y="15000"
textLength="1580" font-size="660" lengthAdjust="spacingAndGlyphs"
text-anchor="start" opacity="0">GND</text>
<path d="M33560 14500
L33510 14470
L33440 14470
L33370 14500
L33320 14540
L33290 14590
L33270 14690
L33270 14760
L33290 14850
L33320 14900
L33370 14950
L33440 14970
L33480 14970
L33560 14950
L33580 14920
L33580 14760
L33480 14760
" />
<path d="M33790 14970
L33790 14470
L34080 14970
L34080 14470
" />
<path d="M34320 14970
L34320 14470
L34440 14470
L34510 14500
L34560 14540
L34580 14590
L34600 14690
L34600 14760
L34580 14850
L34560 14900
L34510 14950
L34440 14970
L34320 14970
" />
</g>
<g style="fill:#840000; fill-opacity:0.0; 
stroke:#840000; stroke-width:60; stroke-opacity:1; 
stroke-linecap:round; stroke-linejoin:round;">
<text x="32450" y="14650"
textLength="1420" font-size="660" lengthAdjust="spacingAndGlyphs"
text-anchor="middle" opacity="0">gnd</text>
<path d="M32100 14290
L32100 14690
L32080 14740
L32050 14760
L32000 14790
L31930 14790
L31890 14760
" />
<path d="M32100 14600
L32050 14620
L31960 14620
L31910 14600
L31890 14570
L31860 14530
L31860 14380
L31890 14340
L31910 14310
L31960 14290
L32050 14290
L32100 14310
" />
<path d="M32340 14290
L32340 14620
" />
<path d="M32340 14340
L32360 14310
L32410 14290
L32480 14290
L32530 14310
L32550 14360
L32550 14620
" />
<path d="M33000 14620
L33000 14120
" />
<path d="M33000 14600
L32960 14620
L32860 14620
L32810 14600
L32790 14570
L32770 14530
L32770 14380
L32790 14340
L32810 14310
L32860 14290
L32960 14290
L33000 14310
" />
<path d="M40950 12750
L41950 12750
" />
</g>
<g style="fill:#008484; fill-opacity:0.0; 
stroke:#008484; stroke-width:60; stroke-opacity:1; 
stroke-linecap:round; stroke-linejoin:round;">
<text x="40750" y="13000"
textLength="1580" font-size="660" lengthAdjust="spacingAndGlyphs"
text-anchor="end" opacity="0">GND</text>
<path d="M39570 12500
L39520 12470
L39450 12470
L39380 12500
L39330 12540
L39310 12590
L39290 12690
L39290 12760
L39310 12850
L39330 12900
L39380 12950
L39450 12970
L39500 12970
L39570 12950
L39600 12920
L39600 12760
L39500 12760
" />
<path d="M39810 12970
L39810 12470
L40100 12970
L40100 12470
" />
<path d="M40330 12970
L40330 12470
L40450 12470
L40520 12500
L40570 12540
L40600 12590
L40620 12690
L40620 12760
L40600 12850
L40570 12900
L40520 12950
L40450 12970
L40330 12970
" />
</g>
<g style="fill:#840000; fill-opacity:0.0; 
stroke:#840000; stroke-width:60; stroke-opacity:1; 
stroke-linecap:round; stroke-linejoin:round;">
<text x="41450" y="12650"
textLength="1420" font-size="660" lengthAdjust="spacingAndGlyphs"
text-anchor="middle" opacity="0">gnd</text>
<path d="M41100 12290
L41100 12690
L41080 12740
L41050 12760
L41000 12790
L40930 12790
L40890 12760
" />
<path d="M41100 12600
L41050 12620
L40960 12620
L40910 12600
L40890 12570
L40860 12530
L40860 12380
L40890 12340
L40910 12310
L40960 12290
L41050 12290
L41100 12310
" />
<path d="M41340 12290
L41340 12620
" />
<path d="M41340 12340
L41360 12310
L41410 12290
L41480 12290
L41530 12310
L41550 12360
L41550 12620
" />
<path d="M42000 12620
L42000 12120
" />
<path d="M42000 12600
L41960 12620
L41860 12620
L41810 12600
L41790 12570
L41770 12530
L41770 12380
L41790 12340
L41810 12310
L41860 12290
L41960 12290
L42000 12310
" />
<path d="M32950 13750
L31950 13750
" />
</g>
<g style="fill:#008484; fill-opacity:0.0; 
stroke:#008484; stroke-width:60; stroke-opacity:1; 
stroke-linecap:round; stroke-linejoin:round;">
<text x="33150" y="14000"
textLength="1420" font-size="660" lengthAdjust="spacingAndGlyphs"
text-anchor="start" opacity="0">RST</text>
<path d="M33580 13970
L33410 13730
" />
<path d="M33290 13970
L33290 13470
L33480 13470
L33530 13500
L33560 13520
L33580 13570
L33580 13640
L33560 13690
L33530 13710
L33480 13730
L33290 13730
" />
<path d="M33770 13950
L33840 13970
L33960 13970
L34010 13950
L34030 13920
L34060 13880
L34060 13830
L34030 13780
L34010 13760
L33960 13730
L33870 13710
L33820 13690
L33790 13660
L33770 13610
L33770 13570
L33790 13520
L33820 13500
L33870 13470
L33980 13470
L34060 13500
" />
<path d="M34200 13470
L34480 13470
" />
<path d="M34340 13970
L34340 13470
" />
</g>
<g style="fill:#840000; fill-opacity:0.0; 
stroke:#840000; stroke-width:60; stroke-opacity:1; 
stroke-linecap:round; stroke-linejoin:round;">
<text x="32450" y="13650"
textLength="1060" font-size="660" lengthAdjust="spacingAndGlyphs"
text-anchor="middle" opacity="0">rst</text>
<path d="M32060 13620
L32060 13290
" />
<path d="M32060 13380
L32090 13340
L32110 13310
L32160 13290
L32210 13290
" />
<path d="M32350 13600
L32400 13620
L32490 13620
L32540 13600
L32560 13550
L32560 13530
L32540 13480
L32490 13450
L32420 13450
L32370 13430
L32350 13380
L32350 13360
L32370 13310
L32420 13290
L32490 13290
L32540 13310
" />
<path d="M32710 13290
L32900 13290
" />
<path d="M32780 13120
L32780 13550
L32800 13600
L32850 13620
L32900 13620
" />
<path d="M40950 13750
L41950 13750
" />
</g>
<g style="fill:#008484; fill-opacity:0.0; 
stroke:#008484; stroke-width:60; stroke-opacity:1; 
stroke-linecap:round; stroke-linejoin:round;">
<text x="40750" y="14000"
textLength="1420" font-size="660" lengthAdjust="spacingAndGlyphs"
text-anchor="end" opacity="0">RST</text>
<path d="M39760 13970
L39600 13730
" />
<path d="M39480 13970
L39480 13470
L39670 13470
L39720 13500
L39740 13520
L39760 13570
L39760 13640
L39740 13690
L39720 13710
L39670 13730
L39480 13730
" />
<path d="M39950 13950
L40020 13970
L40140 13970
L40190 13950
L40220 13920
L40240 13880
L40240 13830
L40220 13780
L40190 13760
L40140 13730
L40050 13710
L40000 13690
L39980 13660
L39950 13610
L39950 13570
L39980 13520
L40000 13500
L40050 13470
L40170 13470
L40240 13500
" />
<path d="M40380 13470
L40670 13470
" />
<path d="M40520 13970
L40520 13470
" />
</g>
<g style="fill:#840000; fill-opacity:0.0; 
stroke:#840000; stroke-width:60; stroke-opacity:1; 
stroke-linecap:round; stroke-linejoin:round;">
<text x="41450" y="13650"
textLength="1060" font-size="660" lengthAdjust="spacingAndGlyphs"
text-anchor="middle" opacity="0">rst</text>
<path d="M41060 13620
L41060 13290
" />
<path d="M41060 13380
L41090 13340
L41110 13310
L41160 13290
L41210 13290
" />
<path d="M41350 13600
L41400 13620
L41490 13620
L41540 13600
L41560 13550
L41560 13530
L41540 13480
L41490 13450
L41420 13450
L41370 13430
L41350 13380
L41350 13360
L41370 13310
L41420 13290
L41490 13290
L41540 13310
" />
<path d="M41710 13290
L41900 13290
" />
<path d="M41780 13120
L41780 13550
L41800 13600
L41850 13620
L41900 13620
" />
<path d="M40950 11750
L41950 11750
" />
</g>
<g style="fill:#008484; fill-opacity:0.0; 
stroke:#008484; stroke-width:60; stroke-opacity:1; 
stroke-linecap:round; stroke-linejoin:round;">
<text x="40750" y="12000"
textLength="1250" font-size="660" lengthAdjust="spacingAndGlyphs"
text-anchor="end" opacity="0">VIN</text>
<path d="M39570 11470
L39740 11970
L39910 11470
" />
<path d="M40070 11970
L40070 11470
" />
<path d="M40310 11970
L40310 11470
L40600 11970
L40600 11470
" />
</g>
<g style="fill:#840000; fill-opacity:0.0; 
stroke:#840000; stroke-width:60; stroke-opacity:1; 
stroke-linecap:round; stroke-linejoin:round;">
<text x="41450" y="11650"
textLength="1130" font-size="660" lengthAdjust="spacingAndGlyphs"
text-anchor="middle" opacity="0">vin</text>
<path d="M40980 11290
L41100 11620
L41220 11290
" />
<path d="M41410 11620
L41410 11290
" />
<path d="M41410 11120
L41390 11150
L41410 11170
L41430 11150
L41410 11120
L41410 11170
" />
<path d="M41650 11290
L41650 11620
" />
<path d="M41650 11340
L41670 11310
L41720 11290
L41790 11290
L41840 11310
L41860 11360
L41860 11620
" />
<path d="M40950 14750
L41950 14750
" />
</g>
<g style="fill:#008484; fill-opacity:0.0; 
stroke:#008484; stroke-width:60; stroke-opacity:1; 
stroke-linecap:round; stroke-linejoin:round;">
<text x="40750" y="15000"
textLength="1990" font-size="660" lengthAdjust="spacingAndGlyphs"
text-anchor="end" opacity="0">VUSB</text>
<path d="M38830 14470
L39000 14970
L39170 14470
" />
<path d="M39330 14470
L39330 14880
L39360 14920
L39380 14950
L39430 14970
L39520 14970
L39570 14950
L39600 14920
L39620 14880
L39620 14470
" />
<path d="M39830 14950
L39910 14970
L40020 14970
L40070 14950
L40100 14920
L40120 14880
L40120 14830
L40100 14780
L40070 14760
L40020 14730
L39930 14710
L39880 14690
L39860 14660
L39830 14610
L39830 14570
L39860 14520
L39880 14500
L39930 14470
L40050 14470
L40120 14500
" />
<path d="M40500 14710
L40570 14730
L40600 14760
L40620 14800
L40620 14880
L40600 14920
L40570 14950
L40520 14970
L40330 14970
L40330 14470
L40500 14470
L40550 14500
L40570 14520
L40600 14570
L40600 14610
L40570 14660
L40550 14690
L40500 14710
L40330 14710
" />
</g>
<g style="fill:#840000; fill-opacity:0.0; 
stroke:#840000; stroke-width:60; stroke-opacity:1; 
stroke-linecap:round; stroke-linejoin:round;">
<text x="41450" y="14650"
textLength="1750" font-size="660" lengthAdjust="spacingAndGlyphs"
text-anchor="middle" opacity="0">vusb</text>
<path d="M40670 14290
L40790 14620
L40910 14290
" />
<path d="M41310 14290
L41310 14620
" />
<path d="M41100 14290
L41100 14550
L41120 14600
L41170 14620
L41240 14620
L41290 14600
L41310 14570
" />
<path d="M41530 14600
L41580 14620
L41670 14620
L41720 14600
L41740 14550
L41740 14530
L41720 14480
L41670 14450
L41600 14450
L41550 14430
L41530 14380
L41530 14360
L41550 14310
L41600 14290
L41670 14290
L41720 14310
" />
<path d="M41960 14620
L41960 14120
" />
<path d="M41960 14310
L42000 14290
L42100 14290
L42150 14310
L42170 14340
L42200 14380
L42200 14530
L42170 14570
L42150 14600
L42100 14620
L42000 14620
L41960 14600
" />
<path d="M37450 31750
L37450 32750
" />
</g>
<g style="fill:#008484; fill-opacity:0.0; 
stroke:#008484; stroke-width:60; stroke-opacity:1; 
stroke-linecap:round; stroke-linejoin:round;">
<g transform="rotate(-90 37450 31550)">
<text x="37450" y="31800"
textLength="2920" font-size="660" lengthAdjust="spacingAndGlyphs"
text-anchor="start" opacity="0">USBgnd</text>
</g>
<path d="M37170 31400
L37580 31400
L37620 31370
L37650 31350
L37670 31300
L37670 31210
L37650 31160
L37620 31130
L37580 31110
L37170 31110
" />
<path d="M37650 30900
L37670 30820
L37670 30710
L37650 30660
L37620 30630
L37580 30610
L37530 30610
L37480 30630
L37460 30660
L37430 30710
L37410 30800
L37390 30850
L37360 30870
L37310 30900
L37270 30900
L37220 30870
L37200 30850
L37170 30800
L37170 30680
L37200 30610
" />
<path d="M37410 30230
L37430 30160
L37460 30130
L37500 30110
L37580 30110
L37620 30130
L37650 30160
L37670 30210
L37670 30400
L37170 30400
L37170 30230
L37200 30180
L37220 30160
L37270 30130
L37310 30130
L37360 30160
L37390 30180
L37410 30230
L37410 30400
" />
<path d="M37340 29680
L37740 29680
L37790 29710
L37810 29730
L37840 29780
L37840 29850
L37810 29900
" />
<path d="M37650 29680
L37670 29730
L37670 29820
L37650 29870
L37620 29900
L37580 29920
L37430 29920
L37390 29900
L37360 29870
L37340 29820
L37340 29730
L37360 29680
" />
<path d="M37340 29440
L37670 29440
" />
<path d="M37390 29440
L37360 29420
L37340 29370
L37340 29300
L37360 29250
L37410 29230
L37670 29230
" />
<path d="M37670 28780
L37170 28780
" />
<path d="M37650 28780
L37670 28820
L37670 28920
L37650 28970
L37620 28990
L37580 29020
L37430 29020
L37390 28990
L37360 28970
L37340 28920
L37340 28820
L37360 28780
" />
</g>
<g style="fill:#840000; fill-opacity:0.0; 
stroke:#840000; stroke-width:60; stroke-opacity:1; 
stroke-linecap:round; stroke-linejoin:round;">
<g transform="rotate(-90 37350 32250)">
<text x="37350" y="32250"
textLength="60" font-size="660" lengthAdjust="spacingAndGlyphs"
text-anchor="middle" opacity="0">~</text>
</g>
<path d="M36450 31750
L36450 32750
" />
</g>
<g style="fill:#008484; fill-opacity:0.0; 
stroke:#008484; stroke-width:60; stroke-opacity:1; 
stroke-linecap:round; stroke-linejoin:round;">
<g transform="rotate(-90 36450 31550)">
<text x="36450" y="31800"
textLength="2250" font-size="660" lengthAdjust="spacingAndGlyphs"
text-anchor="start" opacity="0">USBin</text>
</g>
<path d="M36170 31400
L36580 31400
L36620 31370
L36650 31350
L36670 31300
L36670 31210
L36650 31160
L36620 31130
L36580 31110
L36170 31110
" />
<path d="M36650 30900
L36670 30820
L36670 30710
L36650 30660
L36620 30630
L36580 30610
L36530 30610
L36480 30630
L36460 30660
L36430 30710
L36410 30800
L36390 30850
L36360 30870
L36310 30900
L36270 30900
L36220 30870
L36200 30850
L36170 30800
L36170 30680
L36200 30610
" />
<path d="M36410 30230
L36430 30160
L36460 30130
L36500 30110
L36580 30110
L36620 30130
L36650 30160
L36670 30210
L36670 30400
L36170 30400
L36170 30230
L36200 30180
L36220 30160
L36270 30130
L36310 30130
L36360 30160
L36390 30180
L36410 30230
L36410 30400
" />
<path d="M36670 29900
L36340 29900
" />
<path d="M36170 29900
L36200 29920
L36220 29900
L36200 29870
L36170 29900
L36220 29900
" />
<path d="M36340 29660
L36670 29660
" />
<path d="M36390 29660
L36360 29630
L36340 29590
L36340 29520
L36360 29470
L36410 29440
L36670 29440
" />
</g>
<g style="fill:#840000; fill-opacity:0.0; 
stroke:#840000; stroke-width:60; stroke-opacity:1; 
stroke-linecap:round; stroke-linejoin:round;">
<g transform="rotate(-90 36350 32250)">
<text x="36350" y="32250"
textLength="60" font-size="660" lengthAdjust="spacingAndGlyphs"
text-anchor="middle" opacity="0">~</text>
</g>
</g>
<g style="fill:#008484; fill-opacity:0.0; 
stroke:#008484; stroke-width:60; stroke-opacity:1; 
stroke-linecap:round; stroke-linejoin:round;">
<text x="36950" y="8350"
textLength="920" font-size="660" lengthAdjust="spacingAndGlyphs"
text-anchor="middle" opacity="0">A?</text>
<path d="M36610 8180
L36850 8180
" />
<path d="M36560 8320
L36730 7820
L36900 8320
" />
<path d="M37140 8270
L37160 8300
L37140 8320
L37110 8300
L37140 8270
L37140 8320
" />
<path d="M37040 7850
L37090 7820
L37210 7820
L37250 7850
L37280 7890
L37280 7940
L37250 7990
L37230 8010
L37180 8040
L37160 8060
L37140 8110
L37140 8130
" />
<text x="36950" y="9260"
textLength="11510" font-size="660" lengthAdjust="spacingAndGlyphs"
text-anchor="middle" opacity="0">Arduino_Nano_33_IoT_with_imu</text>
<path d="M31310 9090
L31550 9090
" />
<path d="M31270 9230
L31430 8730
L31600 9230
" />
<path d="M31770 9230
L31770 8900
" />
<path d="M31770 8990
L31790 8950
L31810 8920
L31860 8900
L31910 8900
" />
<path d="M32290 9230
L32290 8730
" />
<path d="M32290 9210
L32240 9230
L32150 9230
L32100 9210
L32080 9180
L32050 9140
L32050 8990
L32080 8950
L32100 8920
L32150 8900
L32240 8900
L32290 8920
" />
<path d="M32740 8900
L32740 9230
" />
<path d="M32530 8900
L32530 9160
L32550 9210
L32600 9230
L32670 9230
L32720 9210
L32740 9180
" />
<path d="M32980 9230
L32980 8900
" />
<path d="M32980 8730
L32960 8760
L32980 8780
L33000 8760
L32980 8730
L32980 8780
" />
<path d="M33220 8900
L33220 9230
" />
<path d="M33220 8950
L33240 8920
L33290 8900
L33360 8900
L33410 8920
L33430 8970
L33430 9230
" />
<path d="M33740 9230
L33700 9210
L33670 9180
L33650 9140
L33650 8990
L33670 8950
L33700 8920
L33740 8900
L33810 8900
L33860 8920
L33890 8950
L33910 8990
L33910 9140
L33890 9180
L33860 9210
L33810 9230
L33740 9230
" />
<path d="M34000 9280
L34390 9280
" />
<path d="M34500 9230
L34500 8730
L34790 9230
L34790 8730
" />
<path d="M35240 9230
L35240 8970
L35220 8920
L35170 8900
L35080 8900
L35030 8920
" />
<path d="M35240 9210
L35200 9230
L35080 9230
L35030 9210
L35000 9160
L35000 9110
L35030 9060
L35080 9040
L35200 9040
L35240 9020
" />
<path d="M35480 8900
L35480 9230
" />
<path d="M35480 8950
L35500 8920
L35550 8900
L35620 8900
L35670 8920
L35700 8970
L35700 9230
" />
<path d="M36000 9230
L35960 9210
L35930 9180
L35910 9140
L35910 8990
L35930 8950
L35960 8920
L36000 8900
L36080 8900
L36120 8920
L36150 8950
L36170 8990
L36170 9140
L36150 9180
L36120 9210
L36080 9230
L36000 9230
" />
<path d="M36270 9280
L36650 9280
" />
<path d="M36720 8730
L37030 8730
L36860 8920
L36930 8920
L36980 8950
L37000 8970
L37030 9020
L37030 9140
L37000 9180
L36980 9210
L36930 9230
L36790 9230
L36740 9210
L36720 9180
" />
<path d="M37200 8730
L37500 8730
L37340 8920
L37410 8920
L37460 8950
L37480 8970
L37500 9020
L37500 9140
L37480 9180
L37460 9210
L37410 9230
L37270 9230
L37220 9210
L37200 9180
" />
<path d="M37600 9280
L37980 9280
" />
<path d="M38100 9230
L38100 8730
" />
<path d="M38410 9230
L38360 9210
L38340 9180
L38310 9140
L38310 8990
L38340 8950
L38360 8920
L38410 8900
L38480 8900
L38530 8920
L38550 8950
L38580 8990
L38580 9140
L38550 9180
L38530 9210
L38480 9230
L38410 9230
" />
<path d="M38720 8730
L39000 8730
" />
<path d="M38860 9230
L38860 8730
" />
<path d="M39050 9280
L39430 9280
" />
<path d="M39500 8900
L39600 9230
L39690 8990
L39790 9230
L39890 8900
" />
<path d="M40080 9230
L40080 8900
" />
<path d="M40080 8730
L40050 8760
L40080 8780
L40100 8760
L40080 8730
L40080 8780
" />
<path d="M40240 8900
L40430 8900
" />
<path d="M40310 8730
L40310 9160
L40340 9210
L40390 9230
L40430 9230
" />
<path d="M40600 9230
L40600 8730
" />
<path d="M40810 9230
L40810 8970
L40790 8920
L40740 8900
L40670 8900
L40620 8920
L40600 8950
" />
<path d="M40930 9280
L41310 9280
" />
<path d="M41430 9230
L41430 8900
" />
<path d="M41430 8730
L41410 8760
L41430 8780
L41460 8760
L41430 8730
L41430 8780
" />
<path d="M41670 9230
L41670 8900
" />
<path d="M41670 8950
L41700 8920
L41740 8900
L41810 8900
L41860 8920
L41890 8970
L41890 9230
" />
<path d="M41890 8970
L41910 8920
L41960 8900
L42030 8900
L42080 8920
L42100 8970
L42100 9230
" />
<path d="M42550 8900
L42550 9230
" />
<path d="M42340 8900
L42340 9160
L42360 9210
L42410 9230
L42480 9230
L42530 9210
L42550 9180
" />
</g>
</g>
<g style="fill:#008484; fill-opacity:0.0; 
stroke:#008484; stroke-width:0; stroke-opacity:1; 
stroke-linecap:round; stroke-linejoin:round;">
<g >
</g>
<g style="fill:#840000; fill-opacity:0.0; 
stroke:#840000; stroke-width:0; stroke-opacity:1; 
stroke-linecap:round; stroke-linejoin:round;">
</g>
<g style="fill:#FFFFC2; fill-opacity:0.0; 
stroke:#FFFFC2; stroke-width:0; stroke-opacity:1; 
stroke-linecap:round; stroke-linejoin:round;">
</g>
<g style="fill:#FFFFC2; fill-opacity:0.6; 
stroke:#FFFFC2; stroke-width:0; stroke-opacity:1; 
stroke-linecap:round; stroke-linejoin:round;">
<rect x="51000" y="14250" width="2000" height="3000" rx="0" />
</g>
<g style="fill:#840000; fill-opacity:0.6; 
stroke:#840000; stroke-width:0; stroke-opacity:1; 
stroke-linecap:round; stroke-linejoin:round;">
</g>
<g style="fill:#840000; fill-opacity:0.0; 
stroke:#840000; stroke-width:100; stroke-opacity:1; 
stroke-linecap:round; stroke-linejoin:round;">
<rect x="51000" y="14250" width="2000" height="3000" rx="0" />
</g>
<g style="fill:#840000; fill-opacity:0.0; 
stroke:#840000; stroke-width:60; stroke-opacity:1; 
stroke-linecap:round; stroke-linejoin:round;">
<circle cx="52000" cy="14950" r="200" /> 
<circle cx="52000" cy="16550" r="200" /> 
</g>
<g style="fill:#840000; fill-opacity:0.0; 
stroke:#840000; stroke-width:100; stroke-opacity:1; 
stroke-linecap:round; stroke-linejoin:round;">
<rect x="51000" y="14250" width="2000" height="3000" rx="0" />
</g>
<g style="fill:#840000; fill-opacity:0.0; 
stroke:#840000; stroke-width:60; stroke-opacity:1; 
stroke-linecap:round; stroke-linejoin:round;">
<path style="fill:#840000; fill-opacity:0.0; 
stroke:#840000; stroke-width:60; stroke-opacity:1; 
stroke-linecap:round; stroke-linejoin:round;fill:none"
d="M 52050,15150
52460,16680
" /> 
<path d="M52000 14750
L52000 12750
" />
<g transform="rotate(-90 52100 13750)">
<text x="52100" y="14250"
textLength="540" font-size="660" lengthAdjust="spacingAndGlyphs"
text-anchor="middle" opacity="0">1</text>
</g>
<path d="M52570 13600
L52570 13890
" />
<path d="M52570 13750
L52070 13750
L52140 13790
L52190 13840
L52210 13890
" />
<path d="M52000 16750
L52000 18750
" />
<g transform="rotate(-90 52100 17750)">
<text x="52100" y="18250"
textLength="540" font-size="660" lengthAdjust="spacingAndGlyphs"
text-anchor="middle" opacity="0">2</text>
</g>
<path d="M52120 17890
L52100 17860
L52070 17820
L52070 17700
L52100 17650
L52120 17630
L52170 17600
L52210 17600
L52290 17630
L52570 17910
L52570 17600
" />
</g>
</g>
<g style="fill:#840000; fill-opacity:0.0; 
stroke:#840000; stroke-width:0; stroke-opacity:1; 
stroke-linecap:round; stroke-linejoin:round;">
<g >
</g>
<g style="fill:#840000; fill-opacity:0.0; 
stroke:#840000; stroke-width:60; stroke-opacity:1; 
stroke-linecap:round; stroke-linejoin:round;">
<circle cx="47850" cy="15750" r="200" /> 
<circle cx="49450" cy="15750" r="200" /> 
<path style="fill:#840000; fill-opacity:0.0; 
stroke:#840000; stroke-width:60; stroke-opacity:1; 
stroke-linecap:round; stroke-linejoin:round;fill:none"
d="M 48650,15250
48650,14550
" /> 
<path style="fill:#840000; fill-opacity:0.0; 
stroke:#840000; stroke-width:60; stroke-opacity:1; 
stroke-linecap:round; stroke-linejoin:round;fill:none"
d="M 49650,15250
47650,15250
" /> 
<path d="M47650 15750
L46650 15750
" />
<path d="M49650 15750
L50650 15750
" />
</g>
</g>
<g style="fill:#840000; fill-opacity:0.0; 
stroke:#840000; stroke-width:0; stroke-opacity:1; 
stroke-linecap:round; stroke-linejoin:round;">
<g >
</g>
<g style="fill:#840000; fill-opacity:0.0; 
stroke:#840000; stroke-width:60; stroke-opacity:1; 
stroke-linecap:round; stroke-linejoin:round;">
<circle cx="58500" cy="18450" r="200" /> 
<circle cx="58500" cy="20050" r="200" /> 
<path style="fill:#840000; fill-opacity:0.0; 
stroke:#840000; stroke-width:60; stroke-opacity:1; 
stroke-linecap:round; stroke-linejoin:round;fill:none"
d="M 59000,19250
59700,19250
" /> 
<path style="fill:#840000; fill-opacity:0.0; 
stroke:#840000; stroke-width:60; stroke-opacity:1; 
stroke-linecap:round; stroke-linejoin:round;fill:none"
d="M 59000,20250
59000,18250
" /> 
<path d="M58500 18250
L58500 17250
" />
<path d="M58500 20250
L58500 21250
" />
</g>
</g>
<g style="fill:#840000; fill-opacity:0.0; 
stroke:#840000; stroke-width:0; stroke-opacity:1; 
stroke-linecap:round; stroke-linejoin:round;">
<g >
</g>
<g style="fill:#840000; fill-opacity:0.0; 
stroke:#840000; stroke-width:60; stroke-opacity:1; 
stroke-linecap:round; stroke-linejoin:round;">
<circle cx="61000" cy="18450" r="200" /> 
<circle cx="61000" cy="20050" r="200" /> 
<path style="fill:#840000; fill-opacity:0.0; 
stroke:#840000; stroke-width:60; stroke-opacity:1; 
stroke-linecap:round; stroke-linejoin:round;fill:none"
d="M 61500,19250
62200,19250
" /> 
<path style="fill:#840000; fill-opacity:0.0; 
stroke:#840000; stroke-width:60; stroke-opacity:1; 
stroke-linecap:round; stroke-linejoin:round;fill:none"
d="M 61500,20250
61500,18250
" /> 
<path d="M61000 18250
L61000 17250
" />
<path d="M61000 20250
L61000 21250
" />
</g>
</g>
<g style="fill:#840000; fill-opacity:0.0; 
stroke:#840000; stroke-width:0; stroke-opacity:1; 
stroke-linecap:round; stroke-linejoin:round;">
<g >
</g>
<g style="fill:#840000; fill-opacity:0.0; 
stroke:#840000; stroke-width:60; stroke-opacity:1; 
stroke-linecap:round; stroke-linejoin:round;">
<rect x="49000" y="22750" width="8000" height="4000" rx="0" />
<path d="M49500 26250
L48500 26250
" />
</g>
<g style="fill:#008484; fill-opacity:0.0; 
stroke:#008484; stroke-width:60; stroke-opacity:1; 
stroke-linecap:round; stroke-linejoin:round;">
<text x="49900" y="26500"
textLength="960" font-size="660" lengthAdjust="spacingAndGlyphs"
text-anchor="start" opacity="0">3V</text>
<path d="M50000 25970
L50310 25970
L50140 26160
L50210 26160
L50260 26190
L50280 26210
L50310 26260
L50310 26380
L50280 26420
L50260 26450
L50210 26470
L50070 26470
L50020 26450
L50000 26420
" />
<path d="M50450 25970
L50620 26470
L50780 25970
" />
</g>
<g style="fill:#840000; fill-opacity:0.0; 
stroke:#840000; stroke-width:60; stroke-opacity:1; 
stroke-linecap:round; stroke-linejoin:round;">
<text x="49000" y="26150"
textLength="60" font-size="660" lengthAdjust="spacingAndGlyphs"
text-anchor="middle" opacity="0">~</text>
<path d="M50000 22750
L50000 21750
" />
</g>
<g style="fill:#008484; fill-opacity:0.0; 
stroke:#008484; stroke-width:60; stroke-opacity:1; 
stroke-linecap:round; stroke-linejoin:round;">
<g transform="rotate(-90 50000 23150)">
<text x="50000" y="23400"
textLength="960" font-size="660" lengthAdjust="spacingAndGlyphs"
text-anchor="end" opacity="0">5V</text>
</g>
<path d="M49720 23720
L49720 23960
L49960 23980
L49940 23960
L49910 23910
L49910 23790
L49940 23750
L49960 23720
L50010 23700
L50130 23700
L50170 23720
L50200 23750
L50220 23790
L50220 23910
L50200 23960
L50170 23980
" />
<path d="M49720 23560
L50220 23390
L49720 23220
" />
</g>
<g style="fill:#840000; fill-opacity:0.0; 
stroke:#840000; stroke-width:60; stroke-opacity:1; 
stroke-linecap:round; stroke-linejoin:round;">
<g transform="rotate(-90 49900 22250)">
<text x="49900" y="22250"
textLength="60" font-size="660" lengthAdjust="spacingAndGlyphs"
text-anchor="middle" opacity="0">~</text>
</g>
<path d="M54500 22750
L54500 21750
" />
</g>
<g style="fill:#008484; fill-opacity:0.0; 
stroke:#008484; stroke-width:60; stroke-opacity:1; 
stroke-linecap:round; stroke-linejoin:round;">
<g transform="rotate(-90 54500 23150)">
<text x="54500" y="23400"
textLength="1580" font-size="660" lengthAdjust="spacingAndGlyphs"
text-anchor="end" opacity="0">GND</text>
</g>
<path d="M54250 24320
L54220 24370
L54220 24440
L54250 24510
L54290 24560
L54340 24580
L54440 24600
L54510 24600
L54600 24580
L54650 24560
L54700 24510
L54720 24440
L54720 24390
L54700 24320
L54670 24290
L54510 24290
L54510 24390
" />
<path d="M54720 24080
L54220 24080
L54720 23790
L54220 23790
" />
<path d="M54720 23560
L54220 23560
L54220 23440
L54250 23370
L54290 23320
L54340 23290
L54440 23270
L54510 23270
L54600 23290
L54650 23320
L54700 23370
L54720 23440
L54720 23560
" />
</g>
<g style="fill:#840000; fill-opacity:0.0; 
stroke:#840000; stroke-width:60; stroke-opacity:1; 
stroke-linecap:round; stroke-linejoin:round;">
<g transform="rotate(-90 54400 22250)">
<text x="54400" y="22250"
textLength="60" font-size="660" lengthAdjust="spacingAndGlyphs"
text-anchor="middle" opacity="0">~</text>
</g>
<path d="M57000 23750
L58000 23750
" />
</g>
<g style="fill:#008484; fill-opacity:0.0; 
stroke:#008484; stroke-width:60; stroke-opacity:1; 
stroke-linecap:round; stroke-linejoin:round;">
<text x="56600" y="24000"
textLength="1490" font-size="660" lengthAdjust="spacingAndGlyphs"
text-anchor="end" opacity="0">SwA</text>
<path d="M55230 23950
L55300 23970
L55420 23970
L55470 23950
L55490 23920
L55520 23880
L55520 23830
L55490 23780
L55470 23760
L55420 23730
L55330 23710
L55280 23690
L55260 23660
L55230 23610
L55230 23570
L55260 23520
L55280 23500
L55330 23470
L55450 23470
L55520 23500
" />
<path d="M55680 23640
L55780 23970
L55870 23730
L55970 23970
L56070 23640
" />
<path d="M56230 23830
L56470 23830
" />
<path d="M56180 23970
L56350 23470
L56520 23970
" />
</g>
<g style="fill:#840000; fill-opacity:0.0; 
stroke:#840000; stroke-width:60; stroke-opacity:1; 
stroke-linecap:round; stroke-linejoin:round;">
<text x="57500" y="23650"
textLength="60" font-size="660" lengthAdjust="spacingAndGlyphs"
text-anchor="middle" opacity="0">~</text>
<path d="M57000 24750
L58000 24750
" />
</g>
<g style="fill:#008484; fill-opacity:0.0; 
stroke:#008484; stroke-width:60; stroke-opacity:1; 
stroke-linecap:round; stroke-linejoin:round;">
<text x="56600" y="25000"
textLength="1560" font-size="660" lengthAdjust="spacingAndGlyphs"
text-anchor="end" opacity="0">SwB</text>
<path d="M55160 24950
L55230 24970
L55350 24970
L55400 24950
L55420 24920
L55450 24880
L55450 24830
L55420 24780
L55400 24760
L55350 24730
L55260 24710
L55210 24690
L55180 24660
L55160 24610
L55160 24570
L55180 24520
L55210 24500
L55260 24470
L55370 24470
L55450 24500
" />
<path d="M55610 24640
L55710 24970
L55800 24730
L55900 24970
L55990 24640
" />
<path d="M56350 24710
L56420 24730
L56450 24760
L56470 24800
L56470 24880
L56450 24920
L56420 24950
L56370 24970
L56180 24970
L56180 24470
L56350 24470
L56400 24500
L56420 24520
L56450 24570
L56450 24610
L56420 24660
L56400 24690
L56350 24710
L56180 24710
" />
</g>
<g style="fill:#840000; fill-opacity:0.0; 
stroke:#840000; stroke-width:60; stroke-opacity:1; 
stroke-linecap:round; stroke-linejoin:round;">
<text x="57500" y="24650"
textLength="60" font-size="660" lengthAdjust="spacingAndGlyphs"
text-anchor="middle" opacity="0">~</text>
<path d="M57000 25750
L58000 25750
" />
</g>
<g style="fill:#008484; fill-opacity:0.0; 
stroke:#008484; stroke-width:60; stroke-opacity:1; 
stroke-linecap:round; stroke-linejoin:round;">
<text x="56600" y="26000"
textLength="1560" font-size="660" lengthAdjust="spacingAndGlyphs"
text-anchor="end" opacity="0">SwC</text>
<path d="M55160 25950
L55230 25970
L55350 25970
L55400 25950
L55420 25920
L55450 25880
L55450 25830
L55420 25780
L55400 25760
L55350 25730
L55260 25710
L55210 25690
L55180 25660
L55160 25610
L55160 25570
L55180 25520
L55210 25500
L55260 25470
L55370 25470
L55450 25500
" />
<path d="M55610 25640
L55710 25970
L55800 25730
L55900 25970
L55990 25640
" />
<path d="M56470 25920
L56450 25950
L56370 25970
L56330 25970
L56260 25950
L56210 25900
L56180 25850
L56160 25760
L56160 25690
L56180 25590
L56210 25540
L56260 25500
L56330 25470
L56370 25470
L56450 25500
L56470 25520
" />
</g>
<g style="fill:#840000; fill-opacity:0.0; 
stroke:#840000; stroke-width:60; stroke-opacity:1; 
stroke-linecap:round; stroke-linejoin:round;">
<text x="57500" y="25650"
textLength="60" font-size="660" lengthAdjust="spacingAndGlyphs"
text-anchor="middle" opacity="0">~</text>
<path d="M49500 25250
L48500 25250
" />
</g>
<g style="fill:#008484; fill-opacity:0.0; 
stroke:#008484; stroke-width:60; stroke-opacity:1; 
stroke-linecap:round; stroke-linejoin:round;">
<text x="49900" y="25500"
textLength="1180" font-size="660" lengthAdjust="spacingAndGlyphs"
text-anchor="start" opacity="0">Vin</text>
<path d="M49970 24970
L50140 25470
L50310 24970
" />
<path d="M50470 25470
L50470 25140
" />
<path d="M50470 24970
L50450 25000
L50470 25020
L50500 25000
L50470 24970
L50470 25020
" />
<path d="M50710 25140
L50710 25470
" />
<path d="M50710 25190
L50730 25160
L50780 25140
L50850 25140
L50900 25160
L50930 25210
L50930 25470
" />
</g>
<g style="fill:#840000; fill-opacity:0.0; 
stroke:#840000; stroke-width:60; stroke-opacity:1; 
stroke-linecap:round; stroke-linejoin:round;">
<text x="49000" y="25150"
textLength="60" font-size="660" lengthAdjust="spacingAndGlyphs"
text-anchor="middle" opacity="0">~</text>
</g>
</g>
<g style="fill:#840000; fill-opacity:0.0; 
stroke:#840000; stroke-width:0; stroke-opacity:1; 
stroke-linecap:round; stroke-linejoin:round;">
<g >
</g>
<g style="fill:#840000; fill-opacity:0.0; 
stroke:#840000; stroke-width:100; stroke-opacity:1; 
stroke-linecap:round; stroke-linejoin:round;">
<rect x="42450" y="13350" width="2000" height="800" rx="0" />
</g>
<g style="fill:#840000; fill-opacity:0.0; 
stroke:#840000; stroke-width:60; stroke-opacity:1; 
stroke-linecap:round; stroke-linejoin:round;">
<path d="M42450 13750
L41950 13750
" />
<path d="M44450 13750
L44950 13750
" />
</g>
<g style="fill:#008484; fill-opacity:0.0; 
stroke:#008484; stroke-width:60; stroke-opacity:1; 
stroke-linecap:round; stroke-linejoin:round;">
<text x="43450" y="12820"
textLength="1040" font-size="660" lengthAdjust="spacingAndGlyphs"
text-anchor="middle" opacity="0">3K</text>
<path d="M43030 12290
L43340 12290
L43170 12480
L43240 12480
L43290 12510
L43310 12530
L43340 12580
L43340 12700
L43310 12740
L43290 12770
L43240 12790
L43100 12790
L43050 12770
L43030 12740
" />
<path d="M43550 12790
L43550 12290
" />
<path d="M43840 12790
L43620 12510
" />
<path d="M43840 12290
L43550 12580
" />
</g>
</g>
<g style="fill:#008484; fill-opacity:0.0; 
stroke:#008484; stroke-width:60; stroke-opacity:1; 
stroke-linecap:round; stroke-linejoin:round;">
</g>
<g style="fill:#008400; fill-opacity:0.0; 
stroke:#008400; stroke-width:60; stroke-opacity:1; 
stroke-linecap:round; stroke-linejoin:round;">
<path d="M22250 22750
L31950 22750
" />
<path d="M31950 22750
L32000 22750
" />
<path d="M36450 32700
L36450 32750
" />
<path d="M31950 25750
L32000 25750
" />
<path d="M29000 25750
L31950 25750
" />
<path d="M26750 21750
L31950 21750
" />
<path d="M31950 21750
L32000 21750
" />
<path d="M26250 20750
L31950 20750
" />
<path d="M31950 24750
L32000 24750
" />
<path d="M30500 24750
L31950 24750
" />
<path d="M31950 20750
L32000 20750
" />
<path d="M28750 14750
L31950 14750
" />
<path d="M31950 14750
L32000 14750
" />
<path d="M42000 37200
L42000 25750
" />
<path d="M46650 13750
L46650 15750
" />
<path d="M44950 13750
L46650 13750
" />
<path d="M46650 9750
L46650 13750
" />
<path d="M49750 9750
L46650 9750
" />
<path d="M43850 12750
L50650 12750
" />
<path d="M50650 12750
L52000 12750
" />
<path d="M43850 8750
L43850 12750
" />
<path d="M49750 8750
L43850 8750
" />
<path d="M42000 12750
L43850 12750
" />
<path d="M42000 25750
L41950 25750
" />
<path d="M37450 32700
L37450 32750
" />
<path d="M28000 37200
L42000 37200
" />
<path d="M28000 20000
L28000 37200
" />
<path d="M37450 32750
L37450 34750
" />
<path d="M36450 32750
L36450 34750
" />
<path d="M37450 31800
L37450 32750
" />
<path d="M36450 31800
L36450 32750
" />
<path d="M36450 34750
L35950 34750
" />
<path d="M22250 18750
L30500 18750
" />
<path d="M37450 34750
L37950 34750
" />
<path d="M26250 20750
L26250 26750
" />
<path d="M42000 14750
L44000 14750
" />
<path d="M44000 21750
L50000 21750
" />
<path d="M50650 12750
L50650 15750
" />
<path d="M52000 18750
L54500 18750
" />
<path d="M54500 18750
L54500 17250
" />
<path d="M61000 24750
L58000 24750
" />
<path d="M61000 21250
L61000 24750
" />
<path d="M26750 21750
L26750 24250
" />
<path d="M26750 24250
L22250 24250
" />
<path d="M44000 14750
L44000 21750
" />
<path d="M26250 26750
L22250 26750
" />
<path d="M22250 21500
L26000 21500
" />
<path d="M26000 21500
L26000 20000
" />
<path d="M26000 20000
L28000 20000
" />
<path d="M22250 20250
L25750 20250
" />
<path d="M25750 20250
L25750 19500
" />
<path d="M25750 19500
L29000 19500
" />
<path d="M29000 19500
L29000 25750
" />
<path d="M30500 18750
L30500 24750
" />
<path d="M54500 17250
L58500 17250
" />
<path d="M28750 8250
L24000 8250
" />
<path d="M54500 21750
L54500 18750
" />
<path d="M48500 22750
L48500 25250
" />
<path d="M42000 22750
L48500 22750
" />
<path d="M28750 14750
L28750 8250
" />
<path d="M61000 17250
L58500 17250
" />
<path d="M58500 23750
L58000 23750
" />
<path d="M58500 21250
L58500 23750
" />
</g>
<g style="fill:#000000; fill-opacity:0.0; 
stroke:#000000; stroke-width:60; stroke-opacity:1; 
stroke-linecap:round; stroke-linejoin:round;">
<text x="48750" y="6900"
textLength="9190" font-size="1840" lengthAdjust="spacingAndGlyphs"
text-anchor="start" opacity="0">ADS1262</text>
<path d="M49040 6440
L49700 6440
" />
<path d="M48910 6830
L49370 5450
L49830 6830
" />
<path d="M50290 6830
L50290 5450
L50620 5450
L50810 5520
L50940 5650
L51010 5780
L51080 6040
L51080 6240
L51010 6500
L50940 6630
L50810 6760
L50620 6830
L50290 6830
" />
<path d="M51600 6760
L51800 6830
L52130 6830
L52260 6760
L52320 6700
L52390 6570
L52390 6440
L52320 6300
L52260 6240
L52130 6170
L51860 6110
L51730 6040
L51670 5980
L51600 5840
L51600 5710
L51670 5580
L51730 5520
L51860 5450
L52190 5450
L52390 5520
" />
<path d="M53700 6830
L52920 6830
" />
<path d="M53310 6830
L53310 5450
L53180 5650
L53050 5780
L52920 5840
" />
<path d="M54230 5580
L54300 5520
L54430 5450
L54760 5450
L54890 5520
L54950 5580
L55020 5710
L55020 5840
L54950 6040
L54160 6830
L55020 6830
" />
<path d="M56200 5450
L55940 5450
L55810 5520
L55740 5580
L55610 5780
L55540 6040
L55540 6570
L55610 6700
L55680 6760
L55810 6830
L56070 6830
L56200 6760
L56270 6700
L56330 6570
L56330 6240
L56270 6110
L56200 6040
L56070 5980
L55810 5980
L55680 6040
L55610 6110
L55540 6240
" />
<path d="M56860 5580
L56920 5520
L57060 5450
L57380 5450
L57520 5520
L57580 5580
L57650 5710
L57650 5840
L57580 6040
L56790 6830
L57650 6830
" />
<text x="1250" y="3900"
textLength="25360" font-size="1840" lengthAdjust="spacingAndGlyphs"
text-anchor="start" opacity="0">Sockel_Verstrkerplatine</text>
<path d="M1540 3760
L1740 3830
L2060 3830
L2200 3760
L2260 3700
L2330 3570
L2330 3440
L2260 3300
L2200 3240
L2060 3170
L1800 3110
L1670 3040
L1600 2980
L1540 2840
L1540 2710
L1600 2580
L1670 2520
L1800 2450
L2130 2450
L2330 2520
" />
<path d="M3120 3830
L2980 3760
L2920 3700
L2850 3570
L2850 3170
L2920 3040
L2980 2980
L3120 2910
L3310 2910
L3440 2980
L3510 3040
L3580 3170
L3580 3570
L3510 3700
L3440 3760
L3310 3830
L3120 3830
" />
<path d="M4760 3760
L4630 3830
L4360 3830
L4230 3760
L4170 3700
L4100 3570
L4100 3170
L4170 3040
L4230 2980
L4360 2910
L4630 2910
L4760 2980
" />
<path d="M5350 3830
L5350 2450
" />
<path d="M5480 3300
L5880 3830
" />
<path d="M5880 2910
L5350 3440
" />
<path d="M6990 3760
L6860 3830
L6600 3830
L6470 3760
L6400 3630
L6400 3110
L6470 2980
L6600 2910
L6860 2910
L6990 2980
L7060 3110
L7060 3240
L6400 3370
" />
<path d="M7850 3830
L7720 3760
L7650 3630
L7650 2450
" />
<path d="M8040 3960
L9100 3960
" />
<path d="M9230 2450
L9690 3830
L10150 2450
" />
<path d="M11130 3760
L11000 3830
L10740 3830
L10610 3760
L10540 3630
L10540 3110
L10610 2980
L10740 2910
L11000 2910
L11130 2980
L11200 3110
L11200 3240
L10540 3370
" />
<path d="M11790 3830
L11790 2910
" />
<path d="M11790 3170
L11850 3040
L11920 2980
L12050 2910
L12180 2910
" />
<path d="M12580 3760
L12710 3830
L12970 3830
L13100 3760
L13170 3630
L13170 3570
L13100 3440
L12970 3370
L12770 3370
L12640 3300
L12580 3170
L12580 3110
L12640 2980
L12770 2910
L12970 2910
L13100 2980
" />
<path d="M13560 2910
L14090 2910
" />
<path d="M13760 2450
L13760 3630
L13830 3760
L13960 3830
L14090 3830
" />
<path d="M15140 3830
L15140 3110
L15070 2980
L14940 2910
L14680 2910
L14550 2980
" />
<path d="M15140 3760
L15010 3830
L14680 3830
L14550 3760
L14480 3630
L14480 3500
L14550 3370
L14680 3300
L15010 3300
L15140 3240
" />
<path d="M14550 2450
L14610 2520
L14550 2580
L14480 2520
L14550 2450
L14550 2580
" />
<path d="M15070 2450
L15140 2520
L15070 2580
L15010 2520
L15070 2450
L15070 2580
" />
<path d="M15800 3830
L15800 2910
" />
<path d="M15800 3170
L15860 3040
L15930 2980
L16060 2910
L16190 2910
" />
<path d="M16650 3830
L16650 2450
" />
<path d="M16780 3300
L17180 3830
" />
<path d="M17180 2910
L16650 3440
" />
<path d="M18290 3760
L18160 3830
L17900 3830
L17770 3760
L17700 3630
L17700 3110
L17770 2980
L17900 2910
L18160 2910
L18290 2980
L18360 3110
L18360 3240
L17700 3370
" />
<path d="M18950 3830
L18950 2910
" />
<path d="M18950 3170
L19020 3040
L19080 2980
L19210 2910
L19350 2910
" />
<path d="M19810 2910
L19810 4290
" />
<path d="M19810 2980
L19940 2910
L20200 2910
L20330 2980
L20400 3040
L20460 3170
L20460 3570
L20400 3700
L20330 3760
L20200 3830
L19940 3830
L19810 3760
" />
<path d="M21250 3830
L21120 3760
L21060 3630
L21060 2450
" />
<path d="M22370 3830
L22370 3110
L22300 2980
L22170 2910
L21910 2910
L21780 2980
" />
<path d="M22370 3760
L22240 3830
L21910 3830
L21780 3760
L21710 3630
L21710 3500
L21780 3370
L21910 3300
L22240 3300
L22370 3240
" />
<path d="M22830 2910
L23350 2910
" />
<path d="M23030 2450
L23030 3630
L23090 3760
L23220 3830
L23350 3830
" />
<path d="M23810 3830
L23810 2910
" />
<path d="M23810 2450
L23750 2520
L23810 2580
L23880 2520
L23810 2450
L23810 2580
" />
<path d="M24470 2910
L24470 3830
" />
<path d="M24470 3040
L24540 2980
L24670 2910
L24870 2910
L25000 2980
L25060 3110
L25060 3830
" />
<path d="M26250 3760
L26110 3830
L25850 3830
L25720 3760
L25650 3630
L25650 3110
L25720 2980
L25850 2910
L26110 2910
L26250 2980
L26310 3110
L26310 3240
L25650 3370
" />
<text x="47000" y="28500"
textLength="15040" font-size="1840" lengthAdjust="spacingAndGlyphs"
text-anchor="start" opacity="0">Fernbedienung</text>
<path d="M47810 27710
L47350 27710
" />
<path d="M47350 28430
L47350 27050
L48010 27050
" />
<path d="M49060 28360
L48930 28430
L48670 28430
L48540 28360
L48470 28230
L48470 27710
L48540 27580
L48670 27510
L48930 27510
L49060 27580
L49130 27710
L49130 27840
L48470 27970
" />
<path d="M49720 28430
L49720 27510
" />
<path d="M49720 27770
L49790 27640
L49850 27580
L49980 27510
L50110 27510
" />
<path d="M50570 27510
L50570 28430
" />
<path d="M50570 27640
L50640 27580
L50770 27510
L50970 27510
L51100 27580
L51170 27710
L51170 28430
" />
<path d="M51820 28430
L51820 27050
" />
<path d="M51820 27580
L51950 27510
L52220 27510
L52350 27580
L52410 27640
L52480 27770
L52480 28170
L52410 28300
L52350 28360
L52220 28430
L51950 28430
L51820 28360
" />
<path d="M53600 28360
L53470 28430
L53200 28430
L53070 28360
L53010 28230
L53010 27710
L53070 27580
L53200 27510
L53470 27510
L53600 27580
L53660 27710
L53660 27840
L53010 27970
" />
<path d="M54850 28430
L54850 27050
" />
<path d="M54850 28360
L54710 28430
L54450 28430
L54320 28360
L54250 28300
L54190 28170
L54190 27770
L54250 27640
L54320 27580
L54450 27510
L54710 27510
L54850 27580
" />
<path d="M55500 28430
L55500 27510
" />
<path d="M55500 27050
L55440 27120
L55500 27180
L55570 27120
L55500 27050
L55500 27180
" />
<path d="M56690 28360
L56550 28430
L56290 28430
L56160 28360
L56090 28230
L56090 27710
L56160 27580
L56290 27510
L56550 27510
L56690 27580
L56750 27710
L56750 27840
L56090 27970
" />
<path d="M57340 27510
L57340 28430
" />
<path d="M57340 27640
L57410 27580
L57540 27510
L57740 27510
L57870 27580
L57930 27710
L57930 28430
" />
<path d="M59180 27510
L59180 28430
" />
<path d="M58590 27510
L58590 28230
L58660 28360
L58790 28430
L58990 28430
L59120 28360
L59180 28300
" />
<path d="M59840 27510
L59840 28430
" />
<path d="M59840 27640
L59910 27580
L60040 27510
L60230 27510
L60370 27580
L60430 27710
L60430 28430
" />
<path d="M61680 27510
L61680 28630
L61610 28760
L61550 28820
L61420 28890
L61220 28890
L61090 28820
" />
<path d="M61680 28360
L61550 28430
L61290 28430
L61150 28360
L61090 28300
L61020 28170
L61020 27770
L61090 27640
L61150 27580
L61290 27510
L61550 27510
L61680 27580
" />
<text x="29250" y="7400"
textLength="15570" font-size="1840" lengthAdjust="spacingAndGlyphs"
text-anchor="start" opacity="0">Mikrocontroller</text>
<path d="M29600 7330
L29600 5950
L30060 6940
L30520 5950
L30520 7330
" />
<path d="M31180 7330
L31180 6410
" />
<path d="M31180 5950
L31120 6020
L31180 6080
L31250 6020
L31180 5950
L31180 6080
" />
<path d="M31840 7330
L31840 5950
" />
<path d="M31970 6800
L32360 7330
" />
<path d="M32360 6410
L31840 6940
" />
<path d="M32960 7330
L32960 6410
" />
<path d="M32960 6670
L33020 6540
L33090 6480
L33220 6410
L33350 6410
" />
<path d="M34010 7330
L33880 7260
L33810 7200
L33740 7070
L33740 6670
L33810 6540
L33880 6480
L34010 6410
L34200 6410
L34340 6480
L34400 6540
L34470 6670
L34470 7070
L34400 7200
L34340 7260
L34200 7330
L34010 7330
" />
<path d="M35650 7260
L35520 7330
L35260 7330
L35120 7260
L35060 7200
L34990 7070
L34990 6670
L35060 6540
L35120 6480
L35260 6410
L35520 6410
L35650 6480
" />
<path d="M36440 7330
L36310 7260
L36240 7200
L36180 7070
L36180 6670
L36240 6540
L36310 6480
L36440 6410
L36640 6410
L36770 6480
L36830 6540
L36900 6670
L36900 7070
L36830 7200
L36770 7260
L36640 7330
L36440 7330
" />
<path d="M37490 6410
L37490 7330
" />
<path d="M37490 6540
L37560 6480
L37690 6410
L37880 6410
L38020 6480
L38080 6610
L38080 7330
" />
<path d="M38540 6410
L39070 6410
" />
<path d="M38740 5950
L38740 7130
L38800 7260
L38940 7330
L39070 7330
" />
<path d="M39530 7330
L39530 6410
" />
<path d="M39530 6670
L39590 6540
L39660 6480
L39790 6410
L39920 6410
" />
<path d="M40580 7330
L40450 7260
L40380 7200
L40320 7070
L40320 6670
L40380 6540
L40450 6480
L40580 6410
L40780 6410
L40910 6480
L40970 6540
L41040 6670
L41040 7070
L40970 7200
L40910 7260
L40780 7330
L40580 7330
" />
<path d="M41830 7330
L41700 7260
L41630 7130
L41630 5950
" />
<path d="M42550 7330
L42420 7260
L42350 7130
L42350 5950
" />
<path d="M43600 7260
L43470 7330
L43210 7330
L43080 7260
L43010 7130
L43010 6610
L43080 6480
L43210 6410
L43470 6410
L43600 6480
L43670 6610
L43670 6740
L43010 6870
" />
<path d="M44260 7330
L44260 6410
" />
<path d="M44260 6670
L44320 6540
L44390 6480
L44520 6410
L44650 6410
" />
</g>
<g style="fill:#000000; fill-opacity:0.0; 
stroke:#000000; stroke-width:0; stroke-opacity:1; 
stroke-linecap:round; stroke-linejoin:round;">
</g>
<g style="fill:#008400; fill-opacity:0.0; 
stroke:#008400; stroke-width:0; stroke-opacity:1; 
stroke-linecap:round; stroke-linejoin:round;">
</g>
<g style="fill:#008400; fill-opacity:1.0; 
stroke:#008400; stroke-width:100; stroke-opacity:1; 
stroke-linecap:round; stroke-linejoin:round;">
<circle cx="58500" cy="17250" r="200" /> 
</g>
<g style="fill:#008400; fill-opacity:1.0; 
stroke:#008400; stroke-width:0; stroke-opacity:1; 
stroke-linecap:round; stroke-linejoin:round;">
</g>
<g style="fill:#008400; fill-opacity:1.0; 
stroke:#008400; stroke-width:100; stroke-opacity:1; 
stroke-linecap:round; stroke-linejoin:round;">
<circle cx="54500" cy="18750" r="200" /> 
</g>
<g style="fill:#008400; fill-opacity:1.0; 
stroke:#008400; stroke-width:0; stroke-opacity:1; 
stroke-linecap:round; stroke-linejoin:round;">
</g>
<g style="fill:#008400; fill-opacity:1.0; 
stroke:#008400; stroke-width:100; stroke-opacity:1; 
stroke-linecap:round; stroke-linejoin:round;">
<circle cx="37450" cy="32750" r="200" /> 
</g>
<g style="fill:#008400; fill-opacity:1.0; 
stroke:#008400; stroke-width:0; stroke-opacity:1; 
stroke-linecap:round; stroke-linejoin:round;">
</g>
<g style="fill:#008400; fill-opacity:1.0; 
stroke:#008400; stroke-width:100; stroke-opacity:1; 
stroke-linecap:round; stroke-linejoin:round;">
<circle cx="31950" cy="21750" r="200" /> 
</g>
<g style="fill:#008400; fill-opacity:1.0; 
stroke:#008400; stroke-width:0; stroke-opacity:1; 
stroke-linecap:round; stroke-linejoin:round;">
</g>
<g style="fill:#008400; fill-opacity:1.0; 
stroke:#008400; stroke-width:100; stroke-opacity:1; 
stroke-linecap:round; stroke-linejoin:round;">
<circle cx="43850" cy="12750" r="200" /> 
</g>
<g style="fill:#008400; fill-opacity:1.0; 
stroke:#008400; stroke-width:0; stroke-opacity:1; 
stroke-linecap:round; stroke-linejoin:round;">
</g>
<g style="fill:#008400; fill-opacity:1.0; 
stroke:#008400; stroke-width:100; stroke-opacity:1; 
stroke-linecap:round; stroke-linejoin:round;">
<circle cx="36450" cy="32750" r="200" /> 
</g>
<g style="fill:#008400; fill-opacity:1.0; 
stroke:#008400; stroke-width:0; stroke-opacity:1; 
stroke-linecap:round; stroke-linejoin:round;">
</g>
<g style="fill:#008400; fill-opacity:1.0; 
stroke:#008400; stroke-width:100; stroke-opacity:1; 
stroke-linecap:round; stroke-linejoin:round;">
<circle cx="50650" cy="12750" r="200" /> 
</g>
<g style="fill:#008400; fill-opacity:1.0; 
stroke:#008400; stroke-width:0; stroke-opacity:1; 
stroke-linecap:round; stroke-linejoin:round;">
</g>
<g style="fill:#008400; fill-opacity:1.0; 
stroke:#008400; stroke-width:100; stroke-opacity:1; 
stroke-linecap:round; stroke-linejoin:round;">
<circle cx="31950" cy="25750" r="200" /> 
</g>
<g style="fill:#008400; fill-opacity:1.0; 
stroke:#008400; stroke-width:0; stroke-opacity:1; 
stroke-linecap:round; stroke-linejoin:round;">
</g>
<g style="fill:#008400; fill-opacity:1.0; 
stroke:#008400; stroke-width:100; stroke-opacity:1; 
stroke-linecap:round; stroke-linejoin:round;">
<circle cx="31950" cy="24750" r="200" /> 
</g>
<g style="fill:#008400; fill-opacity:1.0; 
stroke:#008400; stroke-width:0; stroke-opacity:1; 
stroke-linecap:round; stroke-linejoin:round;">
</g>
<g style="fill:#008400; fill-opacity:1.0; 
stroke:#008400; stroke-width:100; stroke-opacity:1; 
stroke-linecap:round; stroke-linejoin:round;">
<circle cx="31950" cy="22750" r="200" /> 
</g>
<g style="fill:#008400; fill-opacity:1.0; 
stroke:#008400; stroke-width:0; stroke-opacity:1; 
stroke-linecap:round; stroke-linejoin:round;">
</g>
<g style="fill:#008400; fill-opacity:1.0; 
stroke:#008400; stroke-width:100; stroke-opacity:1; 
stroke-linecap:round; stroke-linejoin:round;">
<circle cx="31950" cy="14750" r="200" /> 
</g>
<g style="fill:#008400; fill-opacity:1.0; 
stroke:#008400; stroke-width:0; stroke-opacity:1; 
stroke-linecap:round; stroke-linejoin:round;">
</g>
<g style="fill:#008400; fill-opacity:1.0; 
stroke:#008400; stroke-width:100; stroke-opacity:1; 
stroke-linecap:round; stroke-linejoin:round;">
<circle cx="46650" cy="13750" r="200" /> 
</g>
<g style="fill:#008400; fill-opacity:1.0; 
stroke:#008400; stroke-width:0; stroke-opacity:1; 
stroke-linecap:round; stroke-linejoin:round;">
</g>
<g style="fill:#008400; fill-opacity:1.0; 
stroke:#008400; stroke-width:100; stroke-opacity:1; 
stroke-linecap:round; stroke-linejoin:round;">
<circle cx="31950" cy="20750" r="200" /> 
</g>
<g style="fill:#008400; fill-opacity:1.0; 
stroke:#008400; stroke-width:60; stroke-opacity:1; 
stroke-linecap:round; stroke-linejoin:round;">
</g>
<g style="fill:#000084; fill-opacity:1.0; 
stroke:#000084; stroke-width:60; stroke-opacity:1; 
stroke-linecap:round; stroke-linejoin:round;">
</g>
<g style="fill:#000084; fill-opacity:0.0; 
stroke:#000084; stroke-width:60; stroke-opacity:1; 
stroke-linecap:round; stroke-linejoin:round;">
<path d="M-740 -15240
L-260 -14760
" />
<path d="M-260 -15240
L-740 -14760
" />
</g> 
</svg>
